%
M48
M72
T01C0.0315
T02C0.0320
T03C0.0400
T04C0.0433
T05C0.0470
T06C0.0472
T07C0.0591
T08C0.0630
T09C0.0710
T10C0.1200
T11C0.1260
%
T01
X3931Y22851
X3931Y23851
X3931Y24851
X3931Y25851
X5931Y25851
X5931Y24851
X5931Y23851
X5931Y22851
X6049Y30514
X5259Y30514
X4469Y30514
X16118Y25591
X17118Y25591
X18118Y25591
X19118Y25591
X19118Y23591
X18118Y23591
X17118Y23591
X16118Y23591
T02
X15970Y26520
X18970Y26520
X18470Y18970
X17470Y18970
X16470Y18970
X15470Y18970
X14470Y18970
X13470Y18970
X12470Y18970
X11470Y18970
X10470Y18970
X9470Y18970
X8470Y18970
X7470Y18970
X6470Y18970
X5470Y18970
X6570Y21820
X7220Y23470
X7220Y24720
X8720Y21970
X8220Y21220
X9220Y21220
X10220Y23470
X10220Y24720
X9313Y27734
X8970Y29970
X7970Y29970
X6313Y27734
X5288Y27422
X4788Y28172
X4288Y27422
X2320Y27370
X1320Y27370
X1262Y24313
X2262Y24313
X1470Y22220
X1470Y21220
X2220Y21720
X3570Y21820
X5470Y15970
X6470Y15970
X7470Y15970
X8470Y15970
X9470Y15970
X10470Y15970
X11470Y15970
X12470Y15970
X13470Y15970
X14470Y15970
X15470Y15970
X16470Y15970
X17470Y15970
X17470Y14720
X17470Y13470
X18470Y13470
X18470Y14720
X18470Y15970
X19220Y12220
X19220Y10970
X16220Y10970
X16220Y12220
X15349Y14153
X13449Y14153
X4970Y7970
X4970Y6970
X3970Y9720
X3970Y10970
X3970Y12220
X3970Y13470
X3970Y14720
X970Y14720
X970Y13470
X970Y12220
X970Y10970
X970Y9720
T03
X3690Y5360
X3690Y3580
X6250Y3580
X6250Y5360
X3122Y16397
X3122Y17397
X3122Y18397
X3122Y19397
X2122Y19397
X2122Y18397
X2122Y17397
X2122Y16397
X16440Y9360
X16440Y7580
X16440Y5360
X16440Y3580
X19000Y3580
X19000Y5360
X19000Y7580
X19000Y9360
T04
X17464Y20098
X16283Y20846
X17464Y21594
X14220Y24470
X13220Y24470
X12220Y24470
X10956Y27976
X10208Y29157
X11704Y29157
X14789Y29157
X15537Y27976
X16285Y29157
T05
X12430Y11450
X12430Y9490
X7510Y9490
X7510Y11450
T06
X19334Y20059
X19334Y21633
X16324Y31027
X14750Y31027
X11744Y31027
X10169Y31027
T07
X6874Y30514
X3644Y30514
T08
X7471Y26294
X12470Y26294
T09
X9970Y12240
X9970Y8700
T10
X1783Y1845
X18095Y1783
X18095Y29783
X1845Y29783
T11
X5279Y20288
X5279Y11533
X14662Y11533
X14662Y20276
M30
