G75*
%MOIN*%
%OFA0B0*%
%FSLAX24Y24*%
%IPPOS*%
%LPD*%
%AMOC8*
5,1,8,0,0,1.08239X$1,22.5*
%
%ADD10C,0.0240*%
D10*
X000220Y002189D02*
X000220Y029748D01*
X000222Y029834D01*
X000227Y029920D01*
X000237Y030005D01*
X000250Y030090D01*
X000267Y030174D01*
X000287Y030258D01*
X000311Y030340D01*
X000339Y030421D01*
X000370Y030502D01*
X000404Y030580D01*
X000442Y030657D01*
X000484Y030733D01*
X000528Y030806D01*
X000576Y030877D01*
X000627Y030947D01*
X000681Y031014D01*
X000737Y031078D01*
X000797Y031140D01*
X000859Y031200D01*
X000923Y031256D01*
X000990Y031310D01*
X001060Y031361D01*
X001131Y031409D01*
X001205Y031453D01*
X001280Y031495D01*
X001357Y031533D01*
X001435Y031567D01*
X001516Y031598D01*
X001597Y031626D01*
X001679Y031650D01*
X001763Y031670D01*
X001847Y031687D01*
X001932Y031700D01*
X002017Y031710D01*
X002103Y031715D01*
X002189Y031717D01*
X002189Y031716D02*
X017937Y031716D01*
X017937Y031717D02*
X018023Y031715D01*
X018109Y031710D01*
X018194Y031700D01*
X018279Y031687D01*
X018363Y031670D01*
X018447Y031650D01*
X018529Y031626D01*
X018610Y031598D01*
X018691Y031567D01*
X018769Y031533D01*
X018846Y031495D01*
X018922Y031453D01*
X018995Y031409D01*
X019066Y031361D01*
X019136Y031310D01*
X019203Y031256D01*
X019267Y031200D01*
X019329Y031140D01*
X019389Y031078D01*
X019445Y031014D01*
X019499Y030947D01*
X019550Y030877D01*
X019598Y030806D01*
X019642Y030733D01*
X019684Y030657D01*
X019722Y030580D01*
X019756Y030502D01*
X019787Y030421D01*
X019815Y030340D01*
X019839Y030258D01*
X019859Y030174D01*
X019876Y030090D01*
X019889Y030005D01*
X019899Y029920D01*
X019904Y029834D01*
X019906Y029748D01*
X019905Y029748D02*
X019905Y002189D01*
X019906Y002189D02*
X019904Y002103D01*
X019899Y002017D01*
X019889Y001932D01*
X019876Y001847D01*
X019859Y001763D01*
X019839Y001679D01*
X019815Y001597D01*
X019787Y001516D01*
X019756Y001435D01*
X019722Y001357D01*
X019684Y001280D01*
X019642Y001204D01*
X019598Y001131D01*
X019550Y001060D01*
X019499Y000990D01*
X019445Y000923D01*
X019389Y000859D01*
X019329Y000797D01*
X019267Y000737D01*
X019203Y000681D01*
X019136Y000627D01*
X019066Y000576D01*
X018995Y000528D01*
X018922Y000484D01*
X018846Y000442D01*
X018769Y000404D01*
X018691Y000370D01*
X018610Y000339D01*
X018529Y000311D01*
X018447Y000287D01*
X018363Y000267D01*
X018279Y000250D01*
X018194Y000237D01*
X018109Y000227D01*
X018023Y000222D01*
X017937Y000220D01*
X002189Y000220D01*
X002103Y000222D01*
X002017Y000227D01*
X001932Y000237D01*
X001847Y000250D01*
X001763Y000267D01*
X001679Y000287D01*
X001597Y000311D01*
X001516Y000339D01*
X001435Y000370D01*
X001357Y000404D01*
X001280Y000442D01*
X001204Y000484D01*
X001131Y000528D01*
X001060Y000576D01*
X000990Y000627D01*
X000923Y000681D01*
X000859Y000737D01*
X000797Y000797D01*
X000737Y000859D01*
X000681Y000923D01*
X000627Y000990D01*
X000576Y001060D01*
X000528Y001131D01*
X000484Y001205D01*
X000442Y001280D01*
X000404Y001357D01*
X000370Y001435D01*
X000339Y001516D01*
X000311Y001597D01*
X000287Y001679D01*
X000267Y001763D01*
X000250Y001847D01*
X000237Y001932D01*
X000227Y002017D01*
X000222Y002103D01*
X000220Y002189D01*
M02*
