G75*
%MOIN*%
%OFA0B0*%
%FSLAX24Y24*%
%IPPOS*%
%LPD*%
%AMOC8*
5,1,8,0,0,1.08239X$1,22.5*
%
%ADD10C,0.0050*%
%ADD11C,0.0060*%
%ADD12C,0.0040*%
%ADD13C,0.0030*%
%ADD14C,0.0080*%
%ADD15C,0.0100*%
%ADD16C,0.0472*%
%ADD17C,0.0020*%
%ADD18R,0.0850X0.0200*%
%ADD19C,0.0160*%
%ADD20R,0.0200X0.0800*%
%ADD21R,0.0250X0.0200*%
D10*
X004189Y001933D02*
X004189Y002340D01*
X004189Y002137D02*
X004393Y002340D01*
X004494Y002340D01*
X004696Y002238D02*
X004797Y002340D01*
X005001Y002340D01*
X005103Y002238D01*
X005103Y002137D01*
X004696Y002137D01*
X004696Y002238D02*
X004696Y002035D01*
X004797Y001933D01*
X005001Y001933D01*
X005303Y002035D02*
X005405Y001933D01*
X005710Y001933D01*
X005710Y002340D02*
X005405Y002340D01*
X005303Y002238D01*
X005303Y002035D01*
X008983Y006239D02*
X008983Y006849D01*
X009288Y006849D01*
X009390Y006748D01*
X009390Y006544D01*
X009288Y006442D01*
X008983Y006442D01*
X009590Y006442D02*
X009794Y006442D01*
X009692Y006442D02*
X009692Y007053D01*
X009590Y007053D01*
X010097Y006849D02*
X010301Y006849D01*
X010403Y006748D01*
X010403Y006442D01*
X010097Y006442D01*
X009996Y006544D01*
X010097Y006646D01*
X010403Y006646D01*
X010603Y006544D02*
X010705Y006442D01*
X011010Y006442D01*
X011010Y006341D02*
X010909Y006239D01*
X010807Y006239D01*
X011010Y006341D02*
X011010Y006849D01*
X010603Y006849D02*
X010603Y006544D01*
X011820Y008645D02*
X011820Y009095D01*
X011595Y008870D01*
X011895Y008870D01*
X011845Y011795D02*
X011545Y011795D01*
X011845Y012095D01*
X011845Y012170D01*
X011770Y012245D01*
X011620Y012245D01*
X011545Y012170D01*
X008245Y011795D02*
X007945Y011795D01*
X008095Y011795D02*
X008095Y012245D01*
X007945Y012095D01*
X008020Y009095D02*
X008170Y009095D01*
X008245Y009020D01*
X008245Y008945D01*
X008170Y008870D01*
X008245Y008795D01*
X008245Y008720D01*
X008170Y008645D01*
X008020Y008645D01*
X007945Y008720D01*
X008095Y008870D02*
X008170Y008870D01*
X007945Y009020D02*
X008020Y009095D01*
X004247Y016222D02*
X004247Y016522D01*
X004247Y016372D02*
X003796Y016372D01*
X003946Y016222D01*
X001372Y019422D02*
X001296Y019422D01*
X001221Y019497D01*
X001221Y019647D01*
X001296Y019722D01*
X001372Y019722D01*
X001447Y019647D01*
X001447Y019497D01*
X001372Y019422D01*
X001221Y019497D02*
X001146Y019422D01*
X001071Y019422D01*
X000996Y019497D01*
X000996Y019647D01*
X001071Y019722D01*
X001146Y019722D01*
X001221Y019647D01*
X001370Y020675D02*
X001370Y020833D01*
X000820Y020895D02*
X000820Y022545D01*
X001370Y022607D02*
X001370Y022765D01*
X001370Y021833D02*
X001370Y021607D01*
X000820Y022545D02*
X000868Y022580D01*
X000918Y022613D01*
X000970Y022644D01*
X001024Y022671D01*
X001079Y022695D01*
X001136Y022715D01*
X001193Y022733D01*
X001251Y022747D01*
X001310Y022758D01*
X001370Y022765D01*
X001432Y022769D01*
X001495Y022770D01*
X001557Y022766D01*
X001619Y022759D01*
X001680Y022749D01*
X001741Y022734D01*
X001801Y022716D01*
X001860Y022695D01*
X001917Y022670D01*
X001972Y022642D01*
X002026Y022611D01*
X002078Y022576D01*
X002128Y022538D01*
X002175Y022498D01*
X002220Y022454D01*
X002263Y022409D01*
X002302Y022360D01*
X002339Y022310D01*
X002372Y022257D01*
X002403Y022203D01*
X002430Y022146D01*
X002453Y022089D01*
X002473Y022030D01*
X002473Y021410D02*
X002453Y021350D01*
X002429Y021291D01*
X002401Y021234D01*
X002370Y021179D01*
X002335Y021125D01*
X002298Y021074D01*
X002257Y021025D01*
X002213Y020979D01*
X002167Y020935D01*
X002118Y020894D01*
X002067Y020856D01*
X002014Y020822D01*
X001958Y020790D01*
X001901Y020763D01*
X001842Y020738D01*
X001782Y020718D01*
X001721Y020700D01*
X001659Y020687D01*
X001596Y020678D01*
X001533Y020672D01*
X001469Y020670D01*
X001405Y020672D01*
X001342Y020678D01*
X001279Y020687D01*
X001217Y020701D01*
X001156Y020718D01*
X001096Y020739D01*
X001037Y020763D01*
X000980Y020791D01*
X000924Y020823D01*
X000871Y020858D01*
X000820Y020895D01*
X003634Y029639D02*
X003634Y030514D01*
X003634Y031389D01*
X005259Y031389D01*
X005259Y032952D01*
X006072Y032952D01*
X006072Y031389D01*
X006884Y031389D01*
X006884Y030514D01*
X006884Y029639D01*
X003634Y029639D01*
X005259Y031389D02*
X006072Y031389D01*
X008410Y022223D02*
X008351Y022203D01*
X008294Y022180D01*
X008237Y022153D01*
X008183Y022122D01*
X008130Y022089D01*
X008080Y022052D01*
X008031Y022013D01*
X007986Y021970D01*
X007942Y021925D01*
X007902Y021878D01*
X007864Y021828D01*
X007829Y021776D01*
X007798Y021722D01*
X007770Y021667D01*
X007745Y021610D01*
X007724Y021551D01*
X007706Y021491D01*
X007691Y021430D01*
X007681Y021369D01*
X007674Y021307D01*
X007670Y021245D01*
X007671Y021182D01*
X007675Y021120D01*
X007833Y021120D01*
X007895Y020570D02*
X009545Y020570D01*
X009607Y021120D02*
X009765Y021120D01*
X008833Y021120D02*
X008607Y021120D01*
X007895Y020570D02*
X007860Y020618D01*
X007827Y020668D01*
X007796Y020720D01*
X007769Y020774D01*
X007745Y020829D01*
X007725Y020886D01*
X007707Y020943D01*
X007693Y021001D01*
X007682Y021060D01*
X007675Y021120D01*
X009030Y022223D02*
X009090Y022203D01*
X009149Y022179D01*
X009206Y022151D01*
X009261Y022120D01*
X009315Y022085D01*
X009366Y022048D01*
X009415Y022007D01*
X009461Y021963D01*
X009505Y021917D01*
X009546Y021868D01*
X009584Y021817D01*
X009618Y021764D01*
X009650Y021708D01*
X009677Y021651D01*
X009702Y021592D01*
X009722Y021532D01*
X009740Y021471D01*
X009753Y021409D01*
X009762Y021346D01*
X009768Y021283D01*
X009770Y021219D01*
X009768Y021155D01*
X009762Y021092D01*
X009753Y021029D01*
X009739Y020967D01*
X009722Y020906D01*
X009701Y020846D01*
X009677Y020787D01*
X009649Y020730D01*
X009617Y020674D01*
X009582Y020621D01*
X009545Y020570D01*
D11*
X009720Y023020D02*
X009870Y023020D01*
X009887Y023022D01*
X009904Y023026D01*
X009920Y023033D01*
X009934Y023043D01*
X009947Y023056D01*
X009957Y023070D01*
X009964Y023086D01*
X009968Y023103D01*
X009970Y023120D01*
X009720Y023020D02*
X009670Y023070D01*
X007770Y023070D01*
X007720Y023020D01*
X007570Y023020D01*
X007553Y023022D01*
X007536Y023026D01*
X007520Y023033D01*
X007506Y023043D01*
X007493Y023056D01*
X007483Y023070D01*
X007476Y023086D01*
X007472Y023103D01*
X007470Y023120D01*
X007470Y023820D02*
X007472Y023837D01*
X007476Y023854D01*
X007483Y023870D01*
X007493Y023884D01*
X007506Y023897D01*
X007520Y023907D01*
X007536Y023914D01*
X007553Y023918D01*
X007570Y023920D01*
X007720Y023920D01*
X007770Y023870D01*
X009670Y023870D01*
X009720Y023920D01*
X009870Y023920D01*
X009887Y023918D01*
X009904Y023914D01*
X009920Y023907D01*
X009934Y023897D01*
X009947Y023884D01*
X009957Y023870D01*
X009964Y023854D01*
X009968Y023837D01*
X009970Y023820D01*
X009870Y024270D02*
X009720Y024270D01*
X009670Y024320D01*
X007770Y024320D01*
X007720Y024270D01*
X007570Y024270D01*
X007553Y024272D01*
X007536Y024276D01*
X007520Y024283D01*
X007506Y024293D01*
X007493Y024306D01*
X007483Y024320D01*
X007476Y024336D01*
X007472Y024353D01*
X007470Y024370D01*
X007470Y025070D02*
X007472Y025087D01*
X007476Y025104D01*
X007483Y025120D01*
X007493Y025134D01*
X007506Y025147D01*
X007520Y025157D01*
X007536Y025164D01*
X007553Y025168D01*
X007570Y025170D01*
X007720Y025170D01*
X007770Y025120D01*
X009670Y025120D01*
X009720Y025170D01*
X009870Y025170D01*
X009887Y025168D01*
X009904Y025164D01*
X009920Y025157D01*
X009934Y025147D01*
X009947Y025134D01*
X009957Y025120D01*
X009964Y025104D01*
X009968Y025087D01*
X009970Y025070D01*
X009970Y024370D02*
X009968Y024353D01*
X009964Y024336D01*
X009957Y024320D01*
X009947Y024306D01*
X009934Y024293D01*
X009920Y024283D01*
X009904Y024276D01*
X009887Y024272D01*
X009870Y024270D01*
X008963Y027284D02*
X008813Y027284D01*
X008763Y027334D01*
X006863Y027334D01*
X006813Y027284D01*
X006663Y027284D01*
X006646Y027286D01*
X006629Y027290D01*
X006613Y027297D01*
X006599Y027307D01*
X006586Y027320D01*
X006576Y027334D01*
X006569Y027350D01*
X006565Y027367D01*
X006563Y027384D01*
X006563Y028084D02*
X006565Y028101D01*
X006569Y028118D01*
X006576Y028134D01*
X006586Y028148D01*
X006599Y028161D01*
X006613Y028171D01*
X006629Y028178D01*
X006646Y028182D01*
X006663Y028184D01*
X006813Y028184D01*
X006863Y028134D01*
X008763Y028134D01*
X008813Y028184D01*
X008963Y028184D01*
X008980Y028182D01*
X008997Y028178D01*
X009013Y028171D01*
X009027Y028161D01*
X009040Y028148D01*
X009050Y028134D01*
X009057Y028118D01*
X009061Y028101D01*
X009063Y028084D01*
X009063Y027384D02*
X009061Y027367D01*
X009057Y027350D01*
X009050Y027334D01*
X009040Y027320D01*
X009027Y027307D01*
X009013Y027297D01*
X008997Y027290D01*
X008980Y027286D01*
X008963Y027284D01*
X008470Y029370D02*
X008423Y029372D01*
X008375Y029378D01*
X008329Y029387D01*
X008283Y029400D01*
X008239Y029416D01*
X008195Y029437D01*
X008154Y029460D01*
X008115Y029486D01*
X008078Y029516D01*
X008043Y029549D01*
X008011Y029584D01*
X007982Y029621D01*
X008470Y030570D02*
X008515Y030568D01*
X008561Y030563D01*
X008605Y030555D01*
X008649Y030543D01*
X008692Y030527D01*
X008734Y030509D01*
X008774Y030487D01*
X008812Y030463D01*
X008848Y030436D01*
X008883Y030406D01*
X008914Y030373D01*
X008944Y030338D01*
X008470Y030570D02*
X008425Y030568D01*
X008379Y030563D01*
X008335Y030555D01*
X008291Y030543D01*
X008248Y030527D01*
X008206Y030509D01*
X008166Y030487D01*
X008128Y030463D01*
X008092Y030436D01*
X008057Y030406D01*
X008026Y030373D01*
X007996Y030338D01*
X008470Y029370D02*
X008516Y029372D01*
X008562Y029377D01*
X008608Y029386D01*
X008653Y029398D01*
X008696Y029414D01*
X008738Y029433D01*
X008779Y029456D01*
X008818Y029481D01*
X008854Y029509D01*
X008889Y029540D01*
X008921Y029574D01*
X008950Y029610D01*
X005834Y027322D02*
X005676Y027322D01*
X005613Y026772D02*
X003964Y026772D01*
X003901Y027322D02*
X003743Y027322D01*
X004676Y027322D02*
X004901Y027322D01*
X005614Y026772D02*
X005651Y026823D01*
X005686Y026876D01*
X005718Y026932D01*
X005746Y026989D01*
X005770Y027048D01*
X005791Y027108D01*
X005808Y027169D01*
X005822Y027231D01*
X005831Y027294D01*
X005837Y027357D01*
X005839Y027421D01*
X005837Y027485D01*
X005831Y027548D01*
X005822Y027611D01*
X005809Y027673D01*
X005791Y027734D01*
X005771Y027794D01*
X005746Y027853D01*
X005719Y027910D01*
X005687Y027966D01*
X005653Y028019D01*
X005615Y028070D01*
X005574Y028119D01*
X005530Y028165D01*
X005484Y028209D01*
X005435Y028250D01*
X005384Y028287D01*
X005330Y028322D01*
X005275Y028353D01*
X005218Y028381D01*
X005159Y028405D01*
X005099Y028425D01*
X004478Y028425D02*
X004418Y028405D01*
X004359Y028381D01*
X004302Y028353D01*
X004247Y028322D01*
X004193Y028287D01*
X004142Y028250D01*
X004093Y028209D01*
X004047Y028165D01*
X004003Y028119D01*
X003962Y028070D01*
X003924Y028019D01*
X003890Y027966D01*
X003858Y027910D01*
X003831Y027853D01*
X003806Y027794D01*
X003786Y027734D01*
X003768Y027673D01*
X003755Y027611D01*
X003746Y027548D01*
X003740Y027485D01*
X003738Y027421D01*
X003740Y027357D01*
X003746Y027294D01*
X003755Y027231D01*
X003769Y027169D01*
X003786Y027108D01*
X003807Y027048D01*
X003831Y026989D01*
X003859Y026932D01*
X003891Y026876D01*
X003926Y026823D01*
X003963Y026772D01*
X002620Y026870D02*
X002470Y026870D01*
X002470Y026720D01*
X002470Y026870D02*
X002320Y026870D01*
X002470Y026870D02*
X002470Y027020D01*
X000720Y027370D02*
X000722Y027436D01*
X000728Y027501D01*
X000738Y027566D01*
X000751Y027631D01*
X000769Y027694D01*
X000790Y027757D01*
X000815Y027817D01*
X000844Y027877D01*
X000876Y027934D01*
X000911Y027990D01*
X000950Y028043D01*
X000992Y028094D01*
X001036Y028142D01*
X001084Y028187D01*
X001134Y028230D01*
X001187Y028269D01*
X001242Y028306D01*
X001299Y028339D01*
X001358Y028368D01*
X001418Y028394D01*
X001480Y028416D01*
X001543Y028435D01*
X001607Y028449D01*
X001672Y028460D01*
X001738Y028467D01*
X001804Y028470D01*
X001869Y028469D01*
X001935Y028464D01*
X002000Y028455D01*
X002065Y028442D01*
X002128Y028426D01*
X002191Y028406D01*
X002252Y028381D01*
X002312Y028354D01*
X002370Y028323D01*
X002426Y028288D01*
X002480Y028250D01*
X002531Y028209D01*
X002580Y028165D01*
X002626Y028118D01*
X002670Y028069D01*
X002710Y028017D01*
X002747Y027962D01*
X002781Y027906D01*
X002811Y027847D01*
X002838Y027787D01*
X002861Y027726D01*
X002880Y027663D01*
X002896Y027599D01*
X002908Y027534D01*
X002916Y027469D01*
X002920Y027403D01*
X002920Y027337D01*
X002916Y027271D01*
X002908Y027206D01*
X002896Y027141D01*
X002880Y027077D01*
X002861Y027014D01*
X002838Y026953D01*
X002811Y026893D01*
X002781Y026834D01*
X002747Y026778D01*
X002710Y026723D01*
X002670Y026671D01*
X002626Y026622D01*
X002580Y026575D01*
X002531Y026531D01*
X002480Y026490D01*
X002426Y026452D01*
X002370Y026417D01*
X002312Y026386D01*
X002252Y026359D01*
X002191Y026334D01*
X002128Y026314D01*
X002065Y026298D01*
X002000Y026285D01*
X001935Y026276D01*
X001869Y026271D01*
X001804Y026270D01*
X001738Y026273D01*
X001672Y026280D01*
X001607Y026291D01*
X001543Y026305D01*
X001480Y026324D01*
X001418Y026346D01*
X001358Y026372D01*
X001299Y026401D01*
X001242Y026434D01*
X001187Y026471D01*
X001134Y026510D01*
X001084Y026553D01*
X001036Y026598D01*
X000992Y026646D01*
X000950Y026697D01*
X000911Y026750D01*
X000876Y026806D01*
X000844Y026863D01*
X000815Y026923D01*
X000790Y026983D01*
X000769Y027046D01*
X000751Y027109D01*
X000738Y027174D01*
X000728Y027239D01*
X000722Y027304D01*
X000720Y027370D01*
X000662Y024313D02*
X000664Y024379D01*
X000670Y024444D01*
X000680Y024509D01*
X000693Y024574D01*
X000711Y024637D01*
X000732Y024700D01*
X000757Y024760D01*
X000786Y024820D01*
X000818Y024877D01*
X000853Y024933D01*
X000892Y024986D01*
X000934Y025037D01*
X000978Y025085D01*
X001026Y025130D01*
X001076Y025173D01*
X001129Y025212D01*
X001184Y025249D01*
X001241Y025282D01*
X001300Y025311D01*
X001360Y025337D01*
X001422Y025359D01*
X001485Y025378D01*
X001549Y025392D01*
X001614Y025403D01*
X001680Y025410D01*
X001746Y025413D01*
X001811Y025412D01*
X001877Y025407D01*
X001942Y025398D01*
X002007Y025385D01*
X002070Y025369D01*
X002133Y025349D01*
X002194Y025324D01*
X002254Y025297D01*
X002312Y025266D01*
X002368Y025231D01*
X002422Y025193D01*
X002473Y025152D01*
X002522Y025108D01*
X002568Y025061D01*
X002612Y025012D01*
X002652Y024960D01*
X002689Y024905D01*
X002723Y024849D01*
X002753Y024790D01*
X002780Y024730D01*
X002803Y024669D01*
X002822Y024606D01*
X002838Y024542D01*
X002850Y024477D01*
X002858Y024412D01*
X002862Y024346D01*
X002862Y024280D01*
X002858Y024214D01*
X002850Y024149D01*
X002838Y024084D01*
X002822Y024020D01*
X002803Y023957D01*
X002780Y023896D01*
X002753Y023836D01*
X002723Y023777D01*
X002689Y023721D01*
X002652Y023666D01*
X002612Y023614D01*
X002568Y023565D01*
X002522Y023518D01*
X002473Y023474D01*
X002422Y023433D01*
X002368Y023395D01*
X002312Y023360D01*
X002254Y023329D01*
X002194Y023302D01*
X002133Y023277D01*
X002070Y023257D01*
X002007Y023241D01*
X001942Y023228D01*
X001877Y023219D01*
X001811Y023214D01*
X001746Y023213D01*
X001680Y023216D01*
X001614Y023223D01*
X001549Y023234D01*
X001485Y023248D01*
X001422Y023267D01*
X001360Y023289D01*
X001300Y023315D01*
X001241Y023344D01*
X001184Y023377D01*
X001129Y023414D01*
X001076Y023453D01*
X001026Y023496D01*
X000978Y023541D01*
X000934Y023589D01*
X000892Y023640D01*
X000853Y023693D01*
X000818Y023749D01*
X000786Y023806D01*
X000757Y023866D01*
X000732Y023926D01*
X000711Y023989D01*
X000693Y024052D01*
X000680Y024117D01*
X000670Y024182D01*
X000664Y024247D01*
X000662Y024313D01*
X002262Y023813D02*
X002412Y023813D01*
X002412Y023663D01*
X002412Y023813D02*
X002412Y023963D01*
X002412Y023813D02*
X002562Y023813D01*
X004170Y022120D02*
X004170Y021520D01*
X004172Y021503D01*
X004176Y021486D01*
X004183Y021470D01*
X004193Y021456D01*
X004206Y021443D01*
X004220Y021433D01*
X004236Y021426D01*
X004253Y021422D01*
X004270Y021420D01*
X005870Y021420D01*
X005887Y021422D01*
X005904Y021426D01*
X005920Y021433D01*
X005934Y021443D01*
X005947Y021456D01*
X005957Y021470D01*
X005964Y021486D01*
X005968Y021503D01*
X005970Y021520D01*
X005970Y022120D01*
X005968Y022137D01*
X005964Y022154D01*
X005957Y022170D01*
X005947Y022184D01*
X005934Y022197D01*
X005920Y022207D01*
X005904Y022214D01*
X005887Y022218D01*
X005870Y022220D01*
X004270Y022220D01*
X004253Y022218D01*
X004236Y022214D01*
X004220Y022207D01*
X004206Y022197D01*
X004193Y022184D01*
X004183Y022170D01*
X004176Y022154D01*
X004172Y022137D01*
X004170Y022120D01*
X004470Y021820D02*
X005070Y021820D01*
X005070Y022070D01*
X005070Y021820D02*
X005070Y021570D01*
X005070Y021820D02*
X004670Y021570D01*
X004670Y022070D01*
X005070Y021820D01*
X005320Y021820D01*
X003372Y019897D02*
X003622Y019647D01*
X003622Y019147D01*
X003372Y018897D01*
X003622Y018647D01*
X003622Y018147D01*
X003372Y017897D01*
X003622Y017647D01*
X003622Y017147D01*
X003372Y016897D01*
X003622Y016647D01*
X003622Y016147D01*
X003372Y015897D01*
X001872Y015897D01*
X001622Y016147D01*
X001622Y016647D01*
X001872Y016897D01*
X001622Y017147D01*
X001622Y017647D01*
X001872Y017897D01*
X001622Y018147D01*
X001622Y018647D01*
X001872Y018897D01*
X001622Y019147D01*
X001622Y019647D01*
X001872Y019897D01*
X003372Y019897D01*
X004670Y018570D02*
X019270Y018570D01*
X019270Y016370D01*
X004670Y016370D01*
X004670Y017220D01*
X004700Y017222D01*
X004730Y017227D01*
X004759Y017236D01*
X004786Y017249D01*
X004812Y017264D01*
X004836Y017283D01*
X004857Y017304D01*
X004876Y017328D01*
X004891Y017354D01*
X004904Y017381D01*
X004913Y017410D01*
X004918Y017440D01*
X004920Y017470D01*
X004918Y017500D01*
X004913Y017530D01*
X004904Y017559D01*
X004891Y017586D01*
X004876Y017612D01*
X004857Y017636D01*
X004836Y017657D01*
X004812Y017676D01*
X004786Y017691D01*
X004759Y017704D01*
X004730Y017713D01*
X004700Y017718D01*
X004670Y017720D01*
X004670Y018570D01*
X005598Y017735D02*
X005431Y017569D01*
X005431Y017235D01*
X005431Y017485D02*
X005765Y017485D01*
X005765Y017569D02*
X005765Y017235D01*
X005765Y017569D02*
X005598Y017735D01*
X005947Y017735D02*
X006280Y017735D01*
X006113Y017735D02*
X006113Y017235D01*
X006462Y017235D02*
X006462Y017735D01*
X006629Y017569D01*
X006796Y017735D01*
X006796Y017235D01*
X006978Y017235D02*
X006978Y017735D01*
X007312Y017735D01*
X007494Y017652D02*
X007494Y017318D01*
X007577Y017235D01*
X007744Y017235D01*
X007827Y017318D01*
X007827Y017485D01*
X007660Y017485D01*
X007494Y017652D02*
X007577Y017735D01*
X007744Y017735D01*
X007827Y017652D01*
X008009Y017569D02*
X008009Y017235D01*
X008009Y017485D02*
X008343Y017485D01*
X008343Y017569D02*
X008343Y017235D01*
X008343Y017569D02*
X008176Y017735D01*
X008009Y017569D01*
X007312Y017235D02*
X006978Y017235D01*
X006978Y017485D02*
X007145Y017485D01*
X009040Y017318D02*
X009124Y017235D01*
X009291Y017235D01*
X009374Y017318D01*
X009374Y017402D01*
X009291Y017485D01*
X009207Y017485D01*
X009291Y017485D02*
X009374Y017569D01*
X009374Y017652D01*
X009291Y017735D01*
X009124Y017735D01*
X009040Y017652D01*
X009556Y017652D02*
X009640Y017735D01*
X009806Y017735D01*
X009890Y017652D01*
X009890Y017569D01*
X009556Y017235D01*
X009890Y017235D01*
X010072Y017318D02*
X010072Y017402D01*
X010155Y017485D01*
X010322Y017485D01*
X010405Y017402D01*
X010405Y017318D01*
X010322Y017235D01*
X010155Y017235D01*
X010072Y017318D01*
X010155Y017485D02*
X010072Y017569D01*
X010072Y017652D01*
X010155Y017735D01*
X010322Y017735D01*
X010405Y017652D01*
X010405Y017569D01*
X010322Y017485D01*
X010587Y017569D02*
X010587Y017068D01*
X010587Y017235D02*
X010838Y017235D01*
X010921Y017318D01*
X010921Y017485D01*
X010838Y017569D01*
X010587Y017569D01*
X013199Y014803D02*
X015599Y014803D01*
X015649Y014801D01*
X015698Y014795D01*
X015747Y014786D01*
X015795Y014773D01*
X015842Y014756D01*
X015887Y014736D01*
X015931Y014712D01*
X015973Y014685D01*
X016013Y014654D01*
X016050Y014621D01*
X016084Y014585D01*
X016116Y014547D01*
X016145Y014506D01*
X016170Y014464D01*
X016192Y014419D01*
X016211Y014373D01*
X016226Y014325D01*
X016237Y014277D01*
X016245Y014228D01*
X016249Y014178D01*
X016249Y014128D01*
X016245Y014078D01*
X016237Y014029D01*
X016226Y013981D01*
X016211Y013933D01*
X016192Y013887D01*
X016170Y013842D01*
X016145Y013800D01*
X016116Y013759D01*
X016084Y013721D01*
X016050Y013685D01*
X016013Y013652D01*
X015973Y013621D01*
X015931Y013594D01*
X015887Y013570D01*
X015842Y013550D01*
X015795Y013533D01*
X015747Y013520D01*
X015698Y013511D01*
X015649Y013505D01*
X015599Y013503D01*
X013199Y013503D01*
X013149Y013505D01*
X013100Y013511D01*
X013051Y013520D01*
X013003Y013533D01*
X012956Y013550D01*
X012911Y013570D01*
X012867Y013594D01*
X012825Y013621D01*
X012785Y013652D01*
X012748Y013685D01*
X012714Y013721D01*
X012682Y013759D01*
X012653Y013800D01*
X012628Y013842D01*
X012606Y013887D01*
X012587Y013933D01*
X012572Y013981D01*
X012561Y014029D01*
X012553Y014078D01*
X012549Y014128D01*
X012549Y014178D01*
X012553Y014228D01*
X012561Y014277D01*
X012572Y014325D01*
X012587Y014373D01*
X012606Y014419D01*
X012628Y014464D01*
X012653Y014506D01*
X012682Y014547D01*
X012714Y014585D01*
X012748Y014621D01*
X012785Y014654D01*
X012825Y014685D01*
X012867Y014712D01*
X012911Y014736D01*
X012956Y014756D01*
X013003Y014773D01*
X013051Y014786D01*
X013100Y014795D01*
X013149Y014801D01*
X013199Y014803D01*
X013899Y014153D02*
X014149Y014153D01*
X014149Y014453D01*
X014299Y014453D02*
X014499Y014453D01*
X014499Y013853D01*
X014299Y013853D01*
X014299Y014453D01*
X014149Y014153D02*
X014149Y013853D01*
X014649Y013853D02*
X014649Y014153D01*
X014899Y014153D01*
X014649Y014153D02*
X014649Y014453D01*
X016570Y012670D02*
X016720Y012670D01*
X016770Y012620D01*
X018670Y012620D01*
X018720Y012670D01*
X018870Y012670D01*
X018887Y012668D01*
X018904Y012664D01*
X018920Y012657D01*
X018934Y012647D01*
X018947Y012634D01*
X018957Y012620D01*
X018964Y012604D01*
X018968Y012587D01*
X018970Y012570D01*
X018820Y012870D02*
X017120Y012870D01*
X017103Y012872D01*
X017086Y012876D01*
X017070Y012883D01*
X017056Y012893D01*
X017043Y012906D01*
X017033Y012920D01*
X017026Y012936D01*
X017022Y012953D01*
X017020Y012970D01*
X017020Y013970D01*
X017022Y013987D01*
X017026Y014004D01*
X017033Y014020D01*
X017043Y014034D01*
X017056Y014047D01*
X017070Y014057D01*
X017086Y014064D01*
X017103Y014068D01*
X017120Y014070D01*
X018820Y014070D01*
X018820Y014120D02*
X017120Y014120D01*
X017103Y014122D01*
X017086Y014126D01*
X017070Y014133D01*
X017056Y014143D01*
X017043Y014156D01*
X017033Y014170D01*
X017026Y014186D01*
X017022Y014203D01*
X017020Y014220D01*
X017020Y015220D01*
X017022Y015237D01*
X017026Y015254D01*
X017033Y015270D01*
X017043Y015284D01*
X017056Y015297D01*
X017070Y015307D01*
X017086Y015314D01*
X017103Y015318D01*
X017120Y015320D01*
X018820Y015320D01*
X018837Y015318D01*
X018854Y015314D01*
X018870Y015307D01*
X018884Y015297D01*
X018897Y015284D01*
X018907Y015270D01*
X018914Y015254D01*
X018918Y015237D01*
X018920Y015220D01*
X018920Y014220D01*
X018918Y014203D01*
X018914Y014186D01*
X018907Y014170D01*
X018897Y014156D01*
X018884Y014143D01*
X018870Y014133D01*
X018854Y014126D01*
X018837Y014122D01*
X018820Y014120D01*
X018820Y014070D02*
X018837Y014068D01*
X018854Y014064D01*
X018870Y014057D01*
X018884Y014047D01*
X018897Y014034D01*
X018907Y014020D01*
X018914Y014004D01*
X018918Y013987D01*
X018920Y013970D01*
X018920Y012970D01*
X018918Y012953D01*
X018914Y012936D01*
X018907Y012920D01*
X018897Y012906D01*
X018884Y012893D01*
X018870Y012883D01*
X018854Y012876D01*
X018837Y012872D01*
X018820Y012870D01*
X018120Y013470D02*
X018070Y013470D01*
X017870Y013470D02*
X017820Y013470D01*
X017870Y014720D02*
X017820Y014720D01*
X018070Y014720D02*
X018120Y014720D01*
X016570Y012670D02*
X016553Y012668D01*
X016536Y012664D01*
X016520Y012657D01*
X016506Y012647D01*
X016493Y012634D01*
X016483Y012620D01*
X016476Y012604D01*
X016472Y012587D01*
X016470Y012570D01*
X016470Y011870D02*
X016472Y011853D01*
X016476Y011836D01*
X016483Y011820D01*
X016493Y011806D01*
X016506Y011793D01*
X016520Y011783D01*
X016536Y011776D01*
X016553Y011772D01*
X016570Y011770D01*
X016720Y011770D01*
X016770Y011820D01*
X018670Y011820D01*
X018720Y011770D01*
X018870Y011770D01*
X018887Y011772D01*
X018904Y011776D01*
X018920Y011783D01*
X018934Y011793D01*
X018947Y011806D01*
X018957Y011820D01*
X018964Y011836D01*
X018968Y011853D01*
X018970Y011870D01*
X018870Y011420D02*
X018720Y011420D01*
X018670Y011370D01*
X016770Y011370D01*
X016720Y011420D01*
X016570Y011420D01*
X016553Y011418D01*
X016536Y011414D01*
X016520Y011407D01*
X016506Y011397D01*
X016493Y011384D01*
X016483Y011370D01*
X016476Y011354D01*
X016472Y011337D01*
X016470Y011320D01*
X016470Y010620D02*
X016472Y010603D01*
X016476Y010586D01*
X016483Y010570D01*
X016493Y010556D01*
X016506Y010543D01*
X016520Y010533D01*
X016536Y010526D01*
X016553Y010522D01*
X016570Y010520D01*
X016720Y010520D01*
X016770Y010570D01*
X018670Y010570D01*
X018720Y010520D01*
X018870Y010520D01*
X018887Y010522D01*
X018904Y010526D01*
X018920Y010533D01*
X018934Y010543D01*
X018947Y010556D01*
X018957Y010570D01*
X018964Y010586D01*
X018968Y010603D01*
X018970Y010620D01*
X018970Y011320D02*
X018968Y011337D01*
X018964Y011354D01*
X018957Y011370D01*
X018947Y011384D01*
X018934Y011397D01*
X018920Y011407D01*
X018904Y011414D01*
X018887Y011418D01*
X018870Y011420D01*
X015652Y008416D02*
X015225Y008416D01*
X015439Y008203D02*
X015439Y008630D01*
X015612Y004547D02*
X015185Y004547D01*
X011970Y008070D02*
X012370Y008470D01*
X012370Y008970D01*
X011970Y008070D02*
X011870Y007970D01*
X010670Y007970D01*
X010670Y008070D01*
X011970Y008070D01*
X010670Y008070D02*
X010370Y008070D01*
X009570Y008070D01*
X009270Y008070D01*
X009270Y007970D01*
X008070Y007970D01*
X007970Y008070D01*
X009270Y008070D01*
X009570Y008070D02*
X009570Y007920D01*
X010370Y007920D01*
X010370Y008070D01*
X010720Y009720D02*
X009220Y009720D01*
X009220Y011220D01*
X010720Y011220D01*
X010720Y009720D01*
X008570Y010470D02*
X008572Y010545D01*
X008578Y010619D01*
X008588Y010693D01*
X008602Y010766D01*
X008619Y010838D01*
X008641Y010910D01*
X008666Y010980D01*
X008695Y011048D01*
X008728Y011116D01*
X008764Y011181D01*
X008803Y011244D01*
X008846Y011305D01*
X008892Y011364D01*
X008941Y011420D01*
X008993Y011473D01*
X009048Y011524D01*
X009105Y011571D01*
X009165Y011616D01*
X009227Y011657D01*
X009292Y011695D01*
X009358Y011729D01*
X009426Y011760D01*
X009495Y011787D01*
X009566Y011810D01*
X009638Y011830D01*
X009711Y011846D01*
X009784Y011858D01*
X009858Y011866D01*
X009933Y011870D01*
X010007Y011870D01*
X010082Y011866D01*
X010156Y011858D01*
X010229Y011846D01*
X010302Y011830D01*
X010374Y011810D01*
X010445Y011787D01*
X010514Y011760D01*
X010582Y011729D01*
X010648Y011695D01*
X010713Y011657D01*
X010775Y011616D01*
X010835Y011571D01*
X010892Y011524D01*
X010947Y011473D01*
X010999Y011420D01*
X011048Y011364D01*
X011094Y011305D01*
X011137Y011244D01*
X011176Y011181D01*
X011212Y011116D01*
X011245Y011048D01*
X011274Y010980D01*
X011299Y010910D01*
X011321Y010838D01*
X011338Y010766D01*
X011352Y010693D01*
X011362Y010619D01*
X011368Y010545D01*
X011370Y010470D01*
X011368Y010395D01*
X011362Y010321D01*
X011352Y010247D01*
X011338Y010174D01*
X011321Y010102D01*
X011299Y010030D01*
X011274Y009960D01*
X011245Y009892D01*
X011212Y009824D01*
X011176Y009759D01*
X011137Y009696D01*
X011094Y009635D01*
X011048Y009576D01*
X010999Y009520D01*
X010947Y009467D01*
X010892Y009416D01*
X010835Y009369D01*
X010775Y009324D01*
X010713Y009283D01*
X010648Y009245D01*
X010582Y009211D01*
X010514Y009180D01*
X010445Y009153D01*
X010374Y009130D01*
X010302Y009110D01*
X010229Y009094D01*
X010156Y009082D01*
X010082Y009074D01*
X010007Y009070D01*
X009933Y009070D01*
X009858Y009074D01*
X009784Y009082D01*
X009711Y009094D01*
X009638Y009110D01*
X009566Y009130D01*
X009495Y009153D01*
X009426Y009180D01*
X009358Y009211D01*
X009292Y009245D01*
X009227Y009283D01*
X009165Y009324D01*
X009105Y009369D01*
X009048Y009416D01*
X008993Y009467D01*
X008941Y009520D01*
X008892Y009576D01*
X008846Y009635D01*
X008803Y009696D01*
X008764Y009759D01*
X008728Y009824D01*
X008695Y009892D01*
X008666Y009960D01*
X008641Y010030D01*
X008619Y010102D01*
X008602Y010174D01*
X008588Y010247D01*
X008578Y010321D01*
X008572Y010395D01*
X008570Y010470D01*
X007570Y010920D02*
X007570Y010020D01*
X007570Y008970D02*
X007570Y008470D01*
X007970Y008070D01*
X007570Y011970D02*
X007570Y012470D01*
X007970Y012870D01*
X008070Y012970D01*
X009270Y012970D01*
X009270Y012870D01*
X009570Y012870D01*
X010370Y012870D01*
X010670Y012870D01*
X010670Y012970D01*
X011870Y012970D01*
X011970Y012870D01*
X010670Y012870D01*
X010370Y012870D02*
X010370Y013020D01*
X009570Y013020D01*
X009570Y012870D01*
X009270Y012870D02*
X007970Y012870D01*
X003970Y007470D02*
X003972Y007533D01*
X003978Y007595D01*
X003988Y007657D01*
X004001Y007719D01*
X004019Y007779D01*
X004040Y007838D01*
X004065Y007896D01*
X004094Y007952D01*
X004126Y008006D01*
X004161Y008058D01*
X004199Y008107D01*
X004241Y008155D01*
X004285Y008199D01*
X004333Y008241D01*
X004382Y008279D01*
X004434Y008314D01*
X004488Y008346D01*
X004544Y008375D01*
X004602Y008400D01*
X004661Y008421D01*
X004721Y008439D01*
X004783Y008452D01*
X004845Y008462D01*
X004907Y008468D01*
X004970Y008470D01*
X005033Y008468D01*
X005095Y008462D01*
X005157Y008452D01*
X005219Y008439D01*
X005279Y008421D01*
X005338Y008400D01*
X005396Y008375D01*
X005452Y008346D01*
X005506Y008314D01*
X005558Y008279D01*
X005607Y008241D01*
X005655Y008199D01*
X005699Y008155D01*
X005741Y008107D01*
X005779Y008058D01*
X005814Y008006D01*
X005846Y007952D01*
X005875Y007896D01*
X005900Y007838D01*
X005921Y007779D01*
X005939Y007719D01*
X005952Y007657D01*
X005962Y007595D01*
X005968Y007533D01*
X005970Y007470D01*
X005968Y007407D01*
X005962Y007345D01*
X005952Y007283D01*
X005939Y007221D01*
X005921Y007161D01*
X005900Y007102D01*
X005875Y007044D01*
X005846Y006988D01*
X005814Y006934D01*
X005779Y006882D01*
X005741Y006833D01*
X005699Y006785D01*
X005655Y006741D01*
X005607Y006699D01*
X005558Y006661D01*
X005506Y006626D01*
X005452Y006594D01*
X005396Y006565D01*
X005338Y006540D01*
X005279Y006519D01*
X005219Y006501D01*
X005157Y006488D01*
X005095Y006478D01*
X005033Y006472D01*
X004970Y006470D01*
X004907Y006472D01*
X004845Y006478D01*
X004783Y006488D01*
X004721Y006501D01*
X004661Y006519D01*
X004602Y006540D01*
X004544Y006565D01*
X004488Y006594D01*
X004434Y006626D01*
X004382Y006661D01*
X004333Y006699D01*
X004285Y006741D01*
X004241Y006785D01*
X004199Y006833D01*
X004161Y006882D01*
X004126Y006934D01*
X004094Y006988D01*
X004065Y007044D01*
X004040Y007102D01*
X004019Y007161D01*
X004001Y007221D01*
X003988Y007283D01*
X003978Y007345D01*
X003972Y007407D01*
X003970Y007470D01*
X003620Y009270D02*
X003470Y009270D01*
X003420Y009320D01*
X001520Y009320D01*
X001470Y009270D01*
X001320Y009270D01*
X001303Y009272D01*
X001286Y009276D01*
X001270Y009283D01*
X001256Y009293D01*
X001243Y009306D01*
X001233Y009320D01*
X001226Y009336D01*
X001222Y009353D01*
X001220Y009370D01*
X001220Y010070D02*
X001222Y010087D01*
X001226Y010104D01*
X001233Y010120D01*
X001243Y010134D01*
X001256Y010147D01*
X001270Y010157D01*
X001286Y010164D01*
X001303Y010168D01*
X001320Y010170D01*
X001470Y010170D01*
X001520Y010120D01*
X003420Y010120D01*
X003470Y010170D01*
X003620Y010170D01*
X003637Y010168D01*
X003654Y010164D01*
X003670Y010157D01*
X003684Y010147D01*
X003697Y010134D01*
X003707Y010120D01*
X003714Y010104D01*
X003718Y010087D01*
X003720Y010070D01*
X003620Y010520D02*
X003470Y010520D01*
X003420Y010570D01*
X001520Y010570D01*
X001470Y010520D01*
X001320Y010520D01*
X001303Y010522D01*
X001286Y010526D01*
X001270Y010533D01*
X001256Y010543D01*
X001243Y010556D01*
X001233Y010570D01*
X001226Y010586D01*
X001222Y010603D01*
X001220Y010620D01*
X001220Y011320D02*
X001222Y011337D01*
X001226Y011354D01*
X001233Y011370D01*
X001243Y011384D01*
X001256Y011397D01*
X001270Y011407D01*
X001286Y011414D01*
X001303Y011418D01*
X001320Y011420D01*
X001470Y011420D01*
X001520Y011370D01*
X003420Y011370D01*
X003470Y011420D01*
X003620Y011420D01*
X003637Y011418D01*
X003654Y011414D01*
X003670Y011407D01*
X003684Y011397D01*
X003697Y011384D01*
X003707Y011370D01*
X003714Y011354D01*
X003718Y011337D01*
X003720Y011320D01*
X003620Y011770D02*
X003470Y011770D01*
X003420Y011820D01*
X001520Y011820D01*
X001470Y011770D01*
X001320Y011770D01*
X001303Y011772D01*
X001286Y011776D01*
X001270Y011783D01*
X001256Y011793D01*
X001243Y011806D01*
X001233Y011820D01*
X001226Y011836D01*
X001222Y011853D01*
X001220Y011870D01*
X001220Y012570D02*
X001222Y012587D01*
X001226Y012604D01*
X001233Y012620D01*
X001243Y012634D01*
X001256Y012647D01*
X001270Y012657D01*
X001286Y012664D01*
X001303Y012668D01*
X001320Y012670D01*
X001470Y012670D01*
X001520Y012620D01*
X003420Y012620D01*
X003470Y012670D01*
X003620Y012670D01*
X003637Y012668D01*
X003654Y012664D01*
X003670Y012657D01*
X003684Y012647D01*
X003697Y012634D01*
X003707Y012620D01*
X003714Y012604D01*
X003718Y012587D01*
X003720Y012570D01*
X003620Y013020D02*
X003470Y013020D01*
X003420Y013070D01*
X001520Y013070D01*
X001470Y013020D01*
X001320Y013020D01*
X001303Y013022D01*
X001286Y013026D01*
X001270Y013033D01*
X001256Y013043D01*
X001243Y013056D01*
X001233Y013070D01*
X001226Y013086D01*
X001222Y013103D01*
X001220Y013120D01*
X001220Y013820D02*
X001222Y013837D01*
X001226Y013854D01*
X001233Y013870D01*
X001243Y013884D01*
X001256Y013897D01*
X001270Y013907D01*
X001286Y013914D01*
X001303Y013918D01*
X001320Y013920D01*
X001470Y013920D01*
X001520Y013870D01*
X003420Y013870D01*
X003470Y013920D01*
X003620Y013920D01*
X003637Y013918D01*
X003654Y013914D01*
X003670Y013907D01*
X003684Y013897D01*
X003697Y013884D01*
X003707Y013870D01*
X003714Y013854D01*
X003718Y013837D01*
X003720Y013820D01*
X003620Y014270D02*
X003470Y014270D01*
X003420Y014320D01*
X001520Y014320D01*
X001470Y014270D01*
X001320Y014270D01*
X001303Y014272D01*
X001286Y014276D01*
X001270Y014283D01*
X001256Y014293D01*
X001243Y014306D01*
X001233Y014320D01*
X001226Y014336D01*
X001222Y014353D01*
X001220Y014370D01*
X001220Y015070D02*
X001222Y015087D01*
X001226Y015104D01*
X001233Y015120D01*
X001243Y015134D01*
X001256Y015147D01*
X001270Y015157D01*
X001286Y015164D01*
X001303Y015168D01*
X001320Y015170D01*
X001470Y015170D01*
X001520Y015120D01*
X003420Y015120D01*
X003470Y015170D01*
X003620Y015170D01*
X003637Y015168D01*
X003654Y015164D01*
X003670Y015157D01*
X003684Y015147D01*
X003697Y015134D01*
X003707Y015120D01*
X003714Y015104D01*
X003718Y015087D01*
X003720Y015070D01*
X003720Y014370D02*
X003718Y014353D01*
X003714Y014336D01*
X003707Y014320D01*
X003697Y014306D01*
X003684Y014293D01*
X003670Y014283D01*
X003654Y014276D01*
X003637Y014272D01*
X003620Y014270D01*
X003720Y013120D02*
X003718Y013103D01*
X003714Y013086D01*
X003707Y013070D01*
X003697Y013056D01*
X003684Y013043D01*
X003670Y013033D01*
X003654Y013026D01*
X003637Y013022D01*
X003620Y013020D01*
X003720Y011870D02*
X003718Y011853D01*
X003714Y011836D01*
X003707Y011820D01*
X003697Y011806D01*
X003684Y011793D01*
X003670Y011783D01*
X003654Y011776D01*
X003637Y011772D01*
X003620Y011770D01*
X003720Y010620D02*
X003718Y010603D01*
X003714Y010586D01*
X003707Y010570D01*
X003697Y010556D01*
X003684Y010543D01*
X003670Y010533D01*
X003654Y010526D01*
X003637Y010522D01*
X003620Y010520D01*
X003720Y009370D02*
X003718Y009353D01*
X003714Y009336D01*
X003707Y009320D01*
X003697Y009306D01*
X003684Y009293D01*
X003670Y009283D01*
X003654Y009276D01*
X003637Y009272D01*
X003620Y009270D01*
X011970Y012870D02*
X012370Y012470D01*
X012370Y011970D01*
X012370Y010920D02*
X012370Y010020D01*
X016670Y026120D02*
X018270Y026120D01*
X018287Y026122D01*
X018304Y026126D01*
X018320Y026133D01*
X018334Y026143D01*
X018347Y026156D01*
X018357Y026170D01*
X018364Y026186D01*
X018368Y026203D01*
X018370Y026220D01*
X018370Y026820D01*
X018368Y026837D01*
X018364Y026854D01*
X018357Y026870D01*
X018347Y026884D01*
X018334Y026897D01*
X018320Y026907D01*
X018304Y026914D01*
X018287Y026918D01*
X018270Y026920D01*
X016670Y026920D01*
X016653Y026918D01*
X016636Y026914D01*
X016620Y026907D01*
X016606Y026897D01*
X016593Y026884D01*
X016583Y026870D01*
X016576Y026854D01*
X016572Y026837D01*
X016570Y026820D01*
X016570Y026220D01*
X016572Y026203D01*
X016576Y026186D01*
X016583Y026170D01*
X016593Y026156D01*
X016606Y026143D01*
X016620Y026133D01*
X016636Y026126D01*
X016653Y026122D01*
X016670Y026120D01*
X017220Y026520D02*
X017470Y026520D01*
X017470Y026270D01*
X017470Y026520D02*
X017470Y026770D01*
X017470Y026520D02*
X017870Y026770D01*
X017870Y026270D01*
X017470Y026520D01*
X018070Y026520D01*
X017184Y027575D02*
X017291Y027682D01*
X017291Y027788D01*
X017184Y027895D01*
X016864Y027895D01*
X016864Y027575D02*
X017184Y027575D01*
X016864Y027575D02*
X016864Y028215D01*
X017184Y028215D01*
X017291Y028109D01*
X017291Y028002D01*
X017184Y027895D01*
X012673Y027895D02*
X012246Y027895D01*
X012246Y028002D02*
X012460Y028215D01*
X012673Y028002D01*
X012673Y027575D01*
X012246Y027575D02*
X012246Y028002D01*
D12*
X009411Y024780D02*
X009231Y024660D01*
X009411Y024540D01*
X009231Y024540D02*
X009231Y024900D01*
X009103Y024840D02*
X009103Y024780D01*
X008863Y024540D01*
X009103Y024540D01*
X009103Y024840D02*
X009043Y024900D01*
X008923Y024900D01*
X008863Y024840D01*
X008737Y024600D02*
X008677Y024600D01*
X008677Y024540D01*
X008737Y024540D01*
X008737Y024600D01*
X008737Y024540D02*
X008617Y024420D01*
X008489Y024540D02*
X008249Y024540D01*
X008489Y024780D01*
X008489Y024840D01*
X008429Y024900D01*
X008309Y024900D01*
X008249Y024840D01*
X008314Y023666D02*
X008254Y023606D01*
X008314Y023666D02*
X008434Y023666D01*
X008494Y023606D01*
X008494Y023546D01*
X008254Y023306D01*
X008494Y023306D01*
X008622Y023185D02*
X008742Y023306D01*
X008682Y023306D01*
X008682Y023366D01*
X008742Y023366D01*
X008742Y023306D01*
X008868Y023306D02*
X009108Y023546D01*
X009108Y023606D01*
X009048Y023666D01*
X008928Y023666D01*
X008868Y023606D01*
X008868Y023306D02*
X009108Y023306D01*
X009236Y023306D02*
X009236Y023666D01*
X009416Y023546D02*
X009236Y023426D01*
X009416Y023306D01*
X011712Y022738D02*
X011712Y022431D01*
X011712Y022662D02*
X012019Y022662D01*
X012019Y022738D02*
X012019Y022431D01*
X012019Y022738D02*
X011866Y022892D01*
X011712Y022738D01*
X012633Y022662D02*
X012940Y022431D01*
X013094Y022662D02*
X013401Y022662D01*
X013554Y022892D02*
X013861Y022662D01*
X013554Y022431D01*
X012940Y022892D02*
X012633Y022662D01*
X014475Y022662D02*
X014705Y022662D01*
X014782Y022585D01*
X014782Y022508D01*
X014705Y022431D01*
X014475Y022431D01*
X014475Y022892D01*
X014705Y022892D01*
X014782Y022815D01*
X014782Y022738D01*
X014705Y022662D01*
X016516Y022732D02*
X016746Y022732D01*
X016823Y022656D01*
X016823Y022502D01*
X016746Y022426D01*
X016516Y022426D01*
X016516Y022886D01*
X016976Y022732D02*
X016976Y022426D01*
X016976Y022579D02*
X017130Y022732D01*
X017206Y022732D01*
X017360Y022656D02*
X017437Y022732D01*
X017590Y022732D01*
X017667Y022656D01*
X017667Y022579D01*
X017360Y022579D01*
X017360Y022502D02*
X017360Y022656D01*
X017360Y022502D02*
X017437Y022426D01*
X017590Y022426D01*
X017820Y022502D02*
X017897Y022579D01*
X018127Y022579D01*
X018127Y022656D02*
X018127Y022426D01*
X017897Y022426D01*
X017820Y022502D01*
X017897Y022732D02*
X018051Y022732D01*
X018127Y022656D01*
X018281Y022579D02*
X018511Y022732D01*
X018281Y022579D02*
X018511Y022426D01*
X018281Y022426D02*
X018281Y022886D01*
X016705Y015314D02*
X016705Y015074D01*
X016525Y015254D01*
X016885Y015254D01*
X016825Y014946D02*
X016885Y014886D01*
X016885Y014765D01*
X016825Y014705D01*
X016585Y014705D01*
X016525Y014765D01*
X016525Y014886D01*
X016585Y014946D01*
X016609Y013554D02*
X016669Y013554D01*
X016729Y013494D01*
X016789Y013554D01*
X016849Y013554D01*
X016909Y013494D01*
X016909Y013374D01*
X016849Y013314D01*
X016849Y013186D02*
X016909Y013126D01*
X016909Y013006D01*
X016849Y012946D01*
X016609Y012946D01*
X016549Y013006D01*
X016549Y013126D01*
X016609Y013186D01*
X016609Y013314D02*
X016549Y013374D01*
X016549Y013494D01*
X016609Y013554D01*
X016729Y013494D02*
X016729Y013434D01*
X017357Y012388D02*
X017297Y012328D01*
X017357Y012388D02*
X017477Y012388D01*
X017537Y012328D01*
X017537Y012268D01*
X017297Y012028D01*
X017537Y012028D01*
X017665Y012028D02*
X017906Y012268D01*
X017906Y012328D01*
X017846Y012388D01*
X017725Y012388D01*
X017665Y012328D01*
X017665Y012028D02*
X017906Y012028D01*
X018034Y012088D02*
X018274Y012328D01*
X018274Y012088D01*
X018214Y012028D01*
X018094Y012028D01*
X018034Y012088D01*
X018034Y012328D01*
X018094Y012388D01*
X018214Y012388D01*
X018274Y012328D01*
X018194Y011154D02*
X018074Y011154D01*
X018014Y011094D01*
X018014Y010854D01*
X018254Y011094D01*
X018254Y010854D01*
X018194Y010794D01*
X018074Y010794D01*
X018014Y010854D01*
X017886Y010794D02*
X017646Y010794D01*
X017886Y011034D01*
X017886Y011094D01*
X017826Y011154D01*
X017706Y011154D01*
X017646Y011094D01*
X017517Y011094D02*
X017457Y011154D01*
X017337Y011154D01*
X017277Y011094D01*
X017517Y011094D02*
X017517Y011034D01*
X017277Y010794D01*
X017517Y010794D01*
X018194Y011154D02*
X018254Y011094D01*
X018994Y006879D02*
X018994Y006358D01*
X018734Y006358D01*
X018647Y006445D01*
X018647Y006619D01*
X018734Y006705D01*
X018994Y006705D01*
X018479Y006619D02*
X018479Y006532D01*
X018132Y006532D01*
X018132Y006445D02*
X018132Y006619D01*
X018218Y006705D01*
X018392Y006705D01*
X018479Y006619D01*
X018392Y006358D02*
X018218Y006358D01*
X018132Y006445D01*
X017963Y006532D02*
X017963Y006619D01*
X017876Y006705D01*
X017703Y006705D01*
X017616Y006619D01*
X017616Y006445D01*
X017703Y006358D01*
X017876Y006358D01*
X017963Y006532D02*
X017616Y006532D01*
X017447Y006619D02*
X017447Y006445D01*
X017361Y006358D01*
X017100Y006358D01*
X017100Y006185D02*
X017100Y006705D01*
X017361Y006705D01*
X017447Y006619D01*
X016932Y006705D02*
X016672Y006705D01*
X016585Y006619D01*
X016672Y006532D01*
X016845Y006532D01*
X016932Y006445D01*
X016845Y006358D01*
X016585Y006358D01*
X003153Y013290D02*
X002973Y013410D01*
X003153Y013530D01*
X002973Y013650D02*
X002973Y013290D01*
X002845Y013290D02*
X002605Y013290D01*
X002845Y013530D01*
X002845Y013590D01*
X002785Y013650D01*
X002665Y013650D01*
X002605Y013590D01*
X002479Y013350D02*
X002419Y013350D01*
X002419Y013290D01*
X002479Y013290D01*
X002479Y013350D01*
X002479Y013290D02*
X002359Y013170D01*
X002231Y013290D02*
X001991Y013290D01*
X002231Y013530D01*
X002231Y013590D01*
X002171Y013650D01*
X002051Y013650D01*
X001991Y013590D01*
X002372Y014424D02*
X002492Y014544D01*
X002432Y014544D01*
X002432Y014604D01*
X002492Y014604D01*
X002492Y014544D01*
X002617Y014544D02*
X002858Y014784D01*
X002858Y014844D01*
X002798Y014904D01*
X002677Y014904D01*
X002617Y014844D01*
X002617Y014544D02*
X002858Y014544D01*
X002986Y014544D02*
X002986Y014904D01*
X003166Y014784D02*
X002986Y014664D01*
X003166Y014544D01*
X002244Y014544D02*
X002004Y014544D01*
X002244Y014784D01*
X002244Y014844D01*
X002184Y014904D01*
X002064Y014904D01*
X002004Y014844D01*
X002024Y012380D02*
X001964Y012320D01*
X002024Y012380D02*
X002145Y012380D01*
X002205Y012320D01*
X002205Y012260D01*
X001964Y012020D01*
X002205Y012020D01*
X002333Y012020D02*
X002573Y012260D01*
X002573Y012320D01*
X002513Y012380D01*
X002393Y012380D01*
X002333Y012320D01*
X002333Y012020D02*
X002573Y012020D01*
X002701Y012080D02*
X002941Y012320D01*
X002941Y012080D01*
X002881Y012020D01*
X002761Y012020D01*
X002701Y012080D01*
X002701Y012320D01*
X002761Y012380D01*
X002881Y012380D01*
X002941Y012320D01*
X002879Y011127D02*
X002759Y011127D01*
X002699Y011067D01*
X002699Y010826D01*
X002939Y011067D01*
X002939Y010826D01*
X002879Y010766D01*
X002759Y010766D01*
X002699Y010826D01*
X002571Y010766D02*
X002330Y010766D01*
X002571Y011007D01*
X002571Y011067D01*
X002511Y011127D01*
X002390Y011127D01*
X002330Y011067D01*
X002202Y011067D02*
X002142Y011127D01*
X002022Y011127D01*
X001962Y011067D01*
X002202Y011067D02*
X002202Y011007D01*
X001962Y010766D01*
X002202Y010766D01*
X002879Y011127D02*
X002939Y011067D01*
X002909Y009865D02*
X002969Y009805D01*
X002728Y009564D01*
X002788Y009504D01*
X002909Y009504D01*
X002969Y009564D01*
X002969Y009805D01*
X002909Y009865D02*
X002788Y009865D01*
X002728Y009805D01*
X002728Y009564D01*
X002600Y009504D02*
X002360Y009504D01*
X002600Y009745D01*
X002600Y009805D01*
X002540Y009865D01*
X002420Y009865D01*
X002360Y009805D01*
X002232Y009805D02*
X002172Y009865D01*
X002052Y009865D01*
X001992Y009805D01*
X002232Y009805D02*
X002232Y009745D01*
X001992Y009504D01*
X002232Y009504D01*
X002014Y023416D02*
X001774Y023416D01*
X002014Y023656D01*
X002014Y023716D01*
X001954Y023776D01*
X001834Y023776D01*
X001774Y023716D01*
X001646Y023716D02*
X001586Y023776D01*
X001466Y023776D01*
X001405Y023716D01*
X001405Y023476D01*
X001466Y023416D01*
X001586Y023416D01*
X001646Y023476D01*
X001679Y026484D02*
X001739Y026544D01*
X001679Y026484D02*
X001559Y026484D01*
X001499Y026544D01*
X001499Y026785D01*
X001559Y026845D01*
X001679Y026845D01*
X001739Y026785D01*
X001867Y026725D02*
X001988Y026845D01*
X001988Y026484D01*
X002108Y026484D02*
X001867Y026484D01*
X003787Y028713D02*
X003700Y028799D01*
X003700Y028973D01*
X003787Y029060D01*
X003960Y029060D01*
X004047Y028973D01*
X004047Y028799D01*
X003960Y028713D01*
X003787Y028713D01*
X004216Y028713D02*
X004216Y029060D01*
X004476Y029060D01*
X004563Y028973D01*
X004563Y028713D01*
X005763Y028799D02*
X005849Y028713D01*
X006023Y028713D01*
X006110Y028799D01*
X006110Y028973D01*
X006023Y029060D01*
X005849Y029060D01*
X005763Y028973D01*
X005763Y028799D01*
X006278Y028973D02*
X006452Y028973D01*
X006622Y028973D02*
X006795Y028973D01*
X006709Y029146D02*
X006709Y028713D01*
X006365Y028713D02*
X006365Y029146D01*
X006452Y029233D01*
X006709Y029146D02*
X006795Y029233D01*
X007412Y027914D02*
X007352Y027854D01*
X007412Y027914D02*
X007532Y027914D01*
X007592Y027854D01*
X007592Y027794D01*
X007352Y027554D01*
X007592Y027554D01*
X007720Y027554D02*
X007961Y027794D01*
X007961Y027854D01*
X007900Y027914D01*
X007780Y027914D01*
X007720Y027854D01*
X007720Y027554D02*
X007961Y027554D01*
X008089Y027614D02*
X008329Y027854D01*
X008329Y027614D01*
X008269Y027554D01*
X008149Y027554D01*
X008089Y027614D01*
X008089Y027854D01*
X008149Y027914D01*
X008269Y027914D01*
X008329Y027854D01*
D13*
X006629Y029763D02*
X006435Y029763D01*
X006532Y029763D02*
X006532Y030053D01*
X006435Y029956D01*
X006334Y030004D02*
X006286Y030053D01*
X006189Y030053D01*
X006141Y030004D01*
X006141Y029956D01*
X006189Y029908D01*
X006286Y029908D01*
X006334Y029859D01*
X006334Y029811D01*
X006286Y029763D01*
X006189Y029763D01*
X006141Y029811D01*
X005862Y027112D02*
X005668Y027112D01*
X005668Y026967D01*
X005765Y027015D01*
X005813Y027015D01*
X005862Y026967D01*
X005862Y026870D01*
X005813Y026822D01*
X005717Y026822D01*
X005668Y026870D01*
X005567Y026870D02*
X005519Y026822D01*
X005422Y026822D01*
X005374Y026870D01*
X005567Y027064D01*
X005567Y026870D01*
X005374Y026870D02*
X005374Y027064D01*
X005422Y027112D01*
X005519Y027112D01*
X005567Y027064D01*
X005272Y026822D02*
X005079Y026822D01*
X005079Y027112D01*
X004978Y027064D02*
X004978Y027015D01*
X004929Y026967D01*
X004833Y026967D01*
X004784Y027015D01*
X004784Y027064D01*
X004833Y027112D01*
X004929Y027112D01*
X004978Y027064D01*
X004929Y026967D02*
X004978Y026918D01*
X004978Y026870D01*
X004929Y026822D01*
X004833Y026822D01*
X004784Y026870D01*
X004784Y026918D01*
X004833Y026967D01*
X004683Y027064D02*
X004490Y026870D01*
X004490Y026822D01*
X004292Y026822D02*
X004292Y027112D01*
X004388Y027112D02*
X004195Y027112D01*
X004094Y027112D02*
X003900Y027112D01*
X003900Y026822D01*
X004094Y026822D01*
X003997Y026967D02*
X003900Y026967D01*
X004490Y027112D02*
X004683Y027112D01*
X004683Y027064D01*
X004926Y025540D02*
X004926Y025346D01*
X004926Y025443D02*
X004636Y025443D01*
X004733Y025346D01*
X004684Y025245D02*
X004781Y025148D01*
X004926Y025148D01*
X004781Y025148D02*
X004684Y025052D01*
X004636Y025052D01*
X004733Y024950D02*
X004636Y024854D01*
X004733Y024757D01*
X004926Y024757D01*
X004926Y024656D02*
X004926Y024462D01*
X004636Y024462D01*
X004636Y024361D02*
X004636Y024168D01*
X004926Y024168D01*
X004926Y024361D01*
X004781Y024264D02*
X004781Y024168D01*
X004781Y024067D02*
X004684Y024067D01*
X004636Y024018D01*
X004636Y023873D01*
X004926Y023873D01*
X004830Y023873D02*
X004830Y024018D01*
X004781Y024067D01*
X004830Y023970D02*
X004926Y024067D01*
X004781Y024757D02*
X004781Y024950D01*
X004733Y024950D02*
X004926Y024950D01*
X004684Y025245D02*
X004636Y025245D01*
X002449Y025017D02*
X002256Y025017D01*
X002256Y024727D01*
X002155Y024727D02*
X002155Y024921D01*
X002256Y024872D02*
X002352Y024872D01*
X002155Y024727D02*
X002009Y024727D01*
X001961Y024775D01*
X001961Y024921D01*
X001860Y024969D02*
X001860Y024775D01*
X001812Y024727D01*
X001715Y024727D01*
X001666Y024775D01*
X001860Y024969D01*
X001812Y025017D01*
X001715Y025017D01*
X001666Y024969D01*
X001666Y024775D01*
X001565Y024727D02*
X001372Y024727D01*
X001565Y024921D01*
X001565Y024969D01*
X001517Y025017D01*
X001420Y025017D01*
X001372Y024969D01*
X001271Y024969D02*
X001222Y025017D01*
X001125Y025017D01*
X001077Y024969D01*
X001271Y024969D02*
X001271Y024921D01*
X001077Y024727D01*
X001271Y024727D01*
X001782Y022398D02*
X001976Y022398D01*
X001879Y022398D02*
X001879Y022108D01*
X002077Y022108D02*
X002271Y022108D01*
X002174Y022108D02*
X002174Y022398D01*
X002077Y022301D01*
X001214Y022165D02*
X001166Y022165D01*
X000972Y022358D01*
X000924Y022358D01*
X000924Y022165D01*
X000972Y022064D02*
X001021Y022064D01*
X001069Y022015D01*
X001117Y022064D01*
X001166Y022064D01*
X001214Y022015D01*
X001214Y021919D01*
X001166Y021870D01*
X001166Y021769D02*
X001214Y021721D01*
X001214Y021624D01*
X001166Y021576D01*
X001166Y021474D02*
X001214Y021426D01*
X001214Y021329D01*
X001166Y021281D01*
X000972Y021281D01*
X000924Y021329D01*
X000924Y021426D01*
X000972Y021474D01*
X000972Y021576D02*
X000924Y021624D01*
X000924Y021721D01*
X000972Y021769D01*
X001021Y021769D01*
X001069Y021721D01*
X001117Y021769D01*
X001166Y021769D01*
X001069Y021721D02*
X001069Y021672D01*
X000972Y021870D02*
X000924Y021919D01*
X000924Y022015D01*
X000972Y022064D01*
X001069Y022015D02*
X001069Y021967D01*
X001021Y021180D02*
X001069Y021131D01*
X001069Y020986D01*
X001214Y020986D02*
X000924Y020986D01*
X000924Y021131D01*
X000972Y021180D01*
X001021Y021180D01*
X001069Y021131D02*
X001117Y021180D01*
X001166Y021180D01*
X001214Y021131D01*
X001214Y020986D01*
X001132Y027774D02*
X001326Y027968D01*
X001326Y028016D01*
X001277Y028064D01*
X001180Y028064D01*
X001132Y028016D01*
X001132Y027774D02*
X001326Y027774D01*
X001427Y027774D02*
X001620Y027968D01*
X001620Y028016D01*
X001572Y028064D01*
X001475Y028064D01*
X001427Y028016D01*
X001427Y027774D02*
X001620Y027774D01*
X001721Y027823D02*
X001915Y028016D01*
X001915Y027823D01*
X001867Y027774D01*
X001770Y027774D01*
X001721Y027823D01*
X001721Y028016D01*
X001770Y028064D01*
X001867Y028064D01*
X001915Y028016D01*
X002016Y027968D02*
X002016Y027823D01*
X002064Y027774D01*
X002210Y027774D01*
X002210Y027968D01*
X002311Y027919D02*
X002407Y027919D01*
X002311Y027774D02*
X002311Y028064D01*
X002504Y028064D01*
X008085Y020963D02*
X008085Y020672D01*
X008230Y020672D01*
X008279Y020721D01*
X008279Y020769D01*
X008230Y020817D01*
X008085Y020817D01*
X008230Y020817D02*
X008279Y020866D01*
X008279Y020914D01*
X008230Y020963D01*
X008085Y020963D01*
X008380Y020914D02*
X008380Y020721D01*
X008428Y020672D01*
X008525Y020672D01*
X008573Y020721D01*
X008675Y020721D02*
X008723Y020672D01*
X008820Y020672D01*
X008868Y020721D01*
X008868Y020769D01*
X008820Y020817D01*
X008771Y020817D01*
X008820Y020817D02*
X008868Y020866D01*
X008868Y020914D01*
X008820Y020963D01*
X008723Y020963D01*
X008675Y020914D01*
X008573Y020914D02*
X008525Y020963D01*
X008428Y020963D01*
X008380Y020914D01*
X008969Y020914D02*
X009018Y020963D01*
X009114Y020963D01*
X009163Y020914D01*
X009163Y020866D01*
X009114Y020817D01*
X009163Y020769D01*
X009163Y020721D01*
X009114Y020672D01*
X009018Y020672D01*
X008969Y020721D01*
X009066Y020817D02*
X009114Y020817D01*
X009264Y020721D02*
X009264Y020672D01*
X009264Y020721D02*
X009457Y020914D01*
X009457Y020963D01*
X009264Y020963D01*
X009355Y021615D02*
X009549Y021809D01*
X009549Y021857D01*
X009500Y021906D01*
X009404Y021906D01*
X009355Y021857D01*
X009254Y021906D02*
X009061Y021906D01*
X009157Y021906D02*
X009157Y021615D01*
X009355Y021615D02*
X009549Y021615D01*
X014575Y025074D02*
X014623Y025026D01*
X014720Y025026D01*
X014768Y025074D01*
X014768Y025123D01*
X014720Y025171D01*
X014623Y025171D01*
X014575Y025219D01*
X014575Y025268D01*
X014623Y025316D01*
X014720Y025316D01*
X014768Y025268D01*
X014869Y025268D02*
X014918Y025316D01*
X015014Y025316D01*
X015063Y025268D01*
X015063Y025219D01*
X014869Y025026D01*
X015063Y025026D01*
X017140Y024886D02*
X017140Y024595D01*
X017140Y024692D02*
X017285Y024692D01*
X017334Y024740D01*
X017334Y024837D01*
X017285Y024886D01*
X017140Y024886D01*
X017237Y024692D02*
X017334Y024595D01*
X017435Y024595D02*
X017628Y024595D01*
X017729Y024595D02*
X017729Y024886D01*
X017628Y024886D02*
X017435Y024886D01*
X017435Y024595D01*
X017435Y024740D02*
X017532Y024740D01*
X017729Y024595D02*
X017923Y024595D01*
X018024Y024595D02*
X018024Y024789D01*
X018121Y024886D01*
X018218Y024789D01*
X018218Y024595D01*
X018218Y024740D02*
X018024Y024740D01*
X018319Y024837D02*
X018416Y024740D01*
X018416Y024595D01*
X018416Y024740D02*
X018512Y024837D01*
X018512Y024886D01*
X018613Y024837D02*
X018662Y024886D01*
X018759Y024886D01*
X018807Y024837D01*
X018807Y024789D01*
X018613Y024595D01*
X018807Y024595D01*
X018319Y024837D02*
X018319Y024886D01*
X018400Y020513D02*
X018647Y020142D01*
X018769Y020204D02*
X018830Y020142D01*
X018954Y020142D01*
X019016Y020204D01*
X019016Y020266D01*
X018954Y020328D01*
X018892Y020328D01*
X018954Y020328D02*
X019016Y020389D01*
X019016Y020451D01*
X018954Y020513D01*
X018830Y020513D01*
X018769Y020451D01*
X018647Y020513D02*
X018400Y020142D01*
X015057Y013789D02*
X014863Y013596D01*
X015057Y013596D01*
X015057Y013789D02*
X014863Y013789D01*
X014762Y013741D02*
X014569Y013741D01*
X014569Y013596D02*
X014569Y013886D01*
X014467Y013886D02*
X014467Y013596D01*
X014274Y013596D02*
X014274Y013886D01*
X014371Y013789D01*
X014467Y013886D01*
X014173Y013886D02*
X014076Y013837D01*
X013979Y013741D01*
X014124Y013741D01*
X014173Y013692D01*
X014173Y013644D01*
X014124Y013596D01*
X014028Y013596D01*
X013979Y013644D01*
X013979Y013741D01*
X013878Y013596D02*
X013685Y013596D01*
X013781Y013596D02*
X013781Y013886D01*
X013685Y013789D01*
X014762Y013886D02*
X014762Y013596D01*
X015534Y030087D02*
X015781Y030457D01*
X015902Y030334D02*
X016026Y030457D01*
X016026Y030087D01*
X016149Y030087D02*
X015902Y030087D01*
X015781Y030087D02*
X015534Y030457D01*
X011568Y030396D02*
X011507Y030457D01*
X011383Y030457D01*
X011321Y030396D01*
X011200Y030457D02*
X010953Y030087D01*
X011200Y030087D02*
X010953Y030457D01*
X011321Y030087D02*
X011568Y030334D01*
X011568Y030396D01*
X011568Y030087D02*
X011321Y030087D01*
D14*
X003770Y004875D02*
X003770Y004070D01*
X004120Y003270D02*
X005820Y003270D01*
X006170Y004070D02*
X006170Y004863D01*
X005820Y005670D02*
X004120Y005670D01*
X004270Y004470D02*
X004272Y004522D01*
X004278Y004574D01*
X004288Y004626D01*
X004301Y004676D01*
X004318Y004726D01*
X004339Y004774D01*
X004364Y004820D01*
X004392Y004864D01*
X004423Y004906D01*
X004457Y004946D01*
X004494Y004983D01*
X004534Y005017D01*
X004576Y005048D01*
X004620Y005076D01*
X004666Y005101D01*
X004714Y005122D01*
X004764Y005139D01*
X004814Y005152D01*
X004866Y005162D01*
X004918Y005168D01*
X004970Y005170D01*
X005022Y005168D01*
X005074Y005162D01*
X005126Y005152D01*
X005176Y005139D01*
X005226Y005122D01*
X005274Y005101D01*
X005320Y005076D01*
X005364Y005048D01*
X005406Y005017D01*
X005446Y004983D01*
X005483Y004946D01*
X005517Y004906D01*
X005548Y004864D01*
X005576Y004820D01*
X005601Y004774D01*
X005622Y004726D01*
X005639Y004676D01*
X005652Y004626D01*
X005662Y004574D01*
X005668Y004522D01*
X005670Y004470D01*
X005668Y004418D01*
X005662Y004366D01*
X005652Y004314D01*
X005639Y004264D01*
X005622Y004214D01*
X005601Y004166D01*
X005576Y004120D01*
X005548Y004076D01*
X005517Y004034D01*
X005483Y003994D01*
X005446Y003957D01*
X005406Y003923D01*
X005364Y003892D01*
X005320Y003864D01*
X005274Y003839D01*
X005226Y003818D01*
X005176Y003801D01*
X005126Y003788D01*
X005074Y003778D01*
X005022Y003772D01*
X004970Y003770D01*
X004918Y003772D01*
X004866Y003778D01*
X004814Y003788D01*
X004764Y003801D01*
X004714Y003818D01*
X004666Y003839D01*
X004620Y003864D01*
X004576Y003892D01*
X004534Y003923D01*
X004494Y003957D01*
X004457Y003994D01*
X004423Y004034D01*
X004392Y004076D01*
X004364Y004120D01*
X004339Y004166D01*
X004318Y004214D01*
X004301Y004264D01*
X004288Y004314D01*
X004278Y004366D01*
X004272Y004418D01*
X004270Y004470D01*
X004220Y008470D02*
X005720Y008470D01*
X011220Y023470D02*
X011220Y025470D01*
X015220Y025470D01*
X015220Y023470D01*
X011220Y023470D01*
X011901Y028015D02*
X011901Y028588D01*
X011901Y029793D02*
X011901Y030624D01*
X011901Y031395D02*
X011901Y031874D01*
X010011Y031874D01*
X010011Y031403D01*
X010208Y031913D02*
X010208Y032464D01*
X011704Y032464D01*
X011704Y031913D01*
X010011Y030624D02*
X010011Y029793D01*
X010011Y028590D02*
X010011Y028015D01*
X014592Y028015D02*
X014592Y028590D01*
X014592Y029793D02*
X014592Y030624D01*
X014592Y031403D02*
X014592Y031874D01*
X016482Y031874D01*
X016482Y031395D01*
X016285Y031913D02*
X016285Y032464D01*
X014789Y032464D01*
X014789Y031913D01*
X016482Y030624D02*
X016482Y029793D01*
X016482Y028588D02*
X016482Y028015D01*
X016322Y021791D02*
X016897Y021791D01*
X018100Y021791D02*
X018931Y021791D01*
X019710Y021791D02*
X020181Y021791D01*
X020181Y019901D01*
X019702Y019901D01*
X020220Y020098D02*
X020771Y020098D01*
X020771Y021594D01*
X020220Y021594D01*
X018931Y019901D02*
X018100Y019901D01*
X016895Y019901D02*
X016322Y019901D01*
X016870Y009670D02*
X018570Y009670D01*
X018920Y008863D02*
X018920Y008070D01*
X018570Y007270D02*
X016870Y007270D01*
X016520Y008070D02*
X016520Y008875D01*
X017020Y008470D02*
X017022Y008522D01*
X017028Y008574D01*
X017038Y008626D01*
X017051Y008676D01*
X017068Y008726D01*
X017089Y008774D01*
X017114Y008820D01*
X017142Y008864D01*
X017173Y008906D01*
X017207Y008946D01*
X017244Y008983D01*
X017284Y009017D01*
X017326Y009048D01*
X017370Y009076D01*
X017416Y009101D01*
X017464Y009122D01*
X017514Y009139D01*
X017564Y009152D01*
X017616Y009162D01*
X017668Y009168D01*
X017720Y009170D01*
X017772Y009168D01*
X017824Y009162D01*
X017876Y009152D01*
X017926Y009139D01*
X017976Y009122D01*
X018024Y009101D01*
X018070Y009076D01*
X018114Y009048D01*
X018156Y009017D01*
X018196Y008983D01*
X018233Y008946D01*
X018267Y008906D01*
X018298Y008864D01*
X018326Y008820D01*
X018351Y008774D01*
X018372Y008726D01*
X018389Y008676D01*
X018402Y008626D01*
X018412Y008574D01*
X018418Y008522D01*
X018420Y008470D01*
X018418Y008418D01*
X018412Y008366D01*
X018402Y008314D01*
X018389Y008264D01*
X018372Y008214D01*
X018351Y008166D01*
X018326Y008120D01*
X018298Y008076D01*
X018267Y008034D01*
X018233Y007994D01*
X018196Y007957D01*
X018156Y007923D01*
X018114Y007892D01*
X018070Y007864D01*
X018024Y007839D01*
X017976Y007818D01*
X017926Y007801D01*
X017876Y007788D01*
X017824Y007778D01*
X017772Y007772D01*
X017720Y007770D01*
X017668Y007772D01*
X017616Y007778D01*
X017564Y007788D01*
X017514Y007801D01*
X017464Y007818D01*
X017416Y007839D01*
X017370Y007864D01*
X017326Y007892D01*
X017284Y007923D01*
X017244Y007957D01*
X017207Y007994D01*
X017173Y008034D01*
X017142Y008076D01*
X017114Y008120D01*
X017089Y008166D01*
X017068Y008214D01*
X017051Y008264D01*
X017038Y008314D01*
X017028Y008366D01*
X017022Y008418D01*
X017020Y008470D01*
X016870Y005670D02*
X018570Y005670D01*
X018920Y004863D02*
X018920Y004070D01*
X018570Y003270D02*
X016870Y003270D01*
X016520Y004070D02*
X016520Y004875D01*
X017020Y004470D02*
X017022Y004522D01*
X017028Y004574D01*
X017038Y004626D01*
X017051Y004676D01*
X017068Y004726D01*
X017089Y004774D01*
X017114Y004820D01*
X017142Y004864D01*
X017173Y004906D01*
X017207Y004946D01*
X017244Y004983D01*
X017284Y005017D01*
X017326Y005048D01*
X017370Y005076D01*
X017416Y005101D01*
X017464Y005122D01*
X017514Y005139D01*
X017564Y005152D01*
X017616Y005162D01*
X017668Y005168D01*
X017720Y005170D01*
X017772Y005168D01*
X017824Y005162D01*
X017876Y005152D01*
X017926Y005139D01*
X017976Y005122D01*
X018024Y005101D01*
X018070Y005076D01*
X018114Y005048D01*
X018156Y005017D01*
X018196Y004983D01*
X018233Y004946D01*
X018267Y004906D01*
X018298Y004864D01*
X018326Y004820D01*
X018351Y004774D01*
X018372Y004726D01*
X018389Y004676D01*
X018402Y004626D01*
X018412Y004574D01*
X018418Y004522D01*
X018420Y004470D01*
X018418Y004418D01*
X018412Y004366D01*
X018402Y004314D01*
X018389Y004264D01*
X018372Y004214D01*
X018351Y004166D01*
X018326Y004120D01*
X018298Y004076D01*
X018267Y004034D01*
X018233Y003994D01*
X018196Y003957D01*
X018156Y003923D01*
X018114Y003892D01*
X018070Y003864D01*
X018024Y003839D01*
X017976Y003818D01*
X017926Y003801D01*
X017876Y003788D01*
X017824Y003778D01*
X017772Y003772D01*
X017720Y003770D01*
X017668Y003772D01*
X017616Y003778D01*
X017564Y003788D01*
X017514Y003801D01*
X017464Y003818D01*
X017416Y003839D01*
X017370Y003864D01*
X017326Y003892D01*
X017284Y003923D01*
X017244Y003957D01*
X017207Y003994D01*
X017173Y004034D01*
X017142Y004076D01*
X017114Y004120D01*
X017089Y004166D01*
X017068Y004214D01*
X017051Y004264D01*
X017038Y004314D01*
X017028Y004366D01*
X017022Y004418D01*
X017020Y004470D01*
D15*
X017870Y013170D02*
X017870Y013470D01*
X017870Y013770D01*
X018070Y013770D02*
X018070Y013470D01*
X018070Y013170D01*
X018070Y014420D02*
X018070Y014720D01*
X018070Y015020D01*
X017870Y015020D02*
X017870Y014720D01*
X017870Y014420D01*
X017835Y023351D02*
X017402Y023351D01*
X016831Y023351D02*
X016398Y023351D01*
X015827Y023351D02*
X015689Y023351D01*
X015689Y025831D01*
X015827Y025831D01*
X016398Y025831D02*
X016831Y025831D01*
X017402Y025831D02*
X017835Y025831D01*
X018406Y025831D02*
X018839Y025831D01*
X019409Y025831D02*
X019547Y025831D01*
X019547Y023351D01*
X019409Y023351D01*
X018839Y023351D02*
X018406Y023351D01*
X009165Y030367D02*
X009135Y030415D01*
X009102Y030460D01*
X009066Y030503D01*
X009028Y030544D01*
X008986Y030581D01*
X008942Y030616D01*
X008896Y030647D01*
X008847Y030676D01*
X008797Y030700D01*
X008745Y030721D01*
X008691Y030739D01*
X008637Y030752D01*
X008582Y030762D01*
X008526Y030768D01*
X008470Y030770D01*
X009176Y029594D02*
X009149Y029547D01*
X009119Y029502D01*
X009086Y029459D01*
X009050Y029419D01*
X009011Y029381D01*
X008970Y029346D01*
X008927Y029313D01*
X008882Y029284D01*
X008834Y029258D01*
X008785Y029235D01*
X008735Y029215D01*
X008684Y029199D01*
X008631Y029186D01*
X008578Y029177D01*
X008524Y029172D01*
X008470Y029170D01*
X007859Y030487D02*
X007895Y030526D01*
X007934Y030564D01*
X007974Y030598D01*
X008017Y030630D01*
X008062Y030658D01*
X008109Y030684D01*
X008158Y030707D01*
X008208Y030726D01*
X008259Y030742D01*
X008311Y030754D01*
X008363Y030763D01*
X008417Y030768D01*
X008470Y030770D01*
X007855Y029458D02*
X007891Y029418D01*
X007930Y029380D01*
X007971Y029345D01*
X008014Y029313D01*
X008059Y029283D01*
X008106Y029257D01*
X008155Y029235D01*
X008206Y029215D01*
X008257Y029199D01*
X008309Y029186D01*
X008363Y029177D01*
X008416Y029172D01*
X008470Y029170D01*
X006171Y026280D02*
X003690Y026280D01*
X003690Y026142D01*
X003690Y025572D02*
X003690Y025139D01*
X003690Y024568D02*
X003690Y024135D01*
X003690Y023564D02*
X003690Y023131D01*
X003690Y022560D02*
X003690Y022422D01*
X006171Y022422D01*
X006171Y022560D01*
X006171Y023131D02*
X006171Y023564D01*
X006171Y024135D02*
X006171Y024568D01*
X006171Y025139D02*
X006171Y025572D01*
X006171Y026142D02*
X006171Y026280D01*
X005720Y008470D02*
X005774Y008427D01*
X005826Y008381D01*
X005875Y008332D01*
X005922Y008280D01*
X005965Y008226D01*
X006006Y008170D01*
X006043Y008111D01*
X006077Y008051D01*
X006107Y007988D01*
X006134Y007925D01*
X006158Y007859D01*
X006178Y007793D01*
X006194Y007725D01*
X006206Y007657D01*
X006214Y007588D01*
X006219Y007519D01*
X006220Y007449D01*
X006217Y007380D01*
X006210Y007311D01*
X006199Y007243D01*
X006185Y007175D01*
X006166Y007108D01*
X006144Y007042D01*
X006119Y006977D01*
X006090Y006914D01*
X006057Y006853D01*
X006021Y006794D01*
X005982Y006737D01*
X005940Y006681D01*
X005895Y006629D01*
X005847Y006579D01*
X005796Y006532D01*
X005742Y006487D01*
X005687Y006446D01*
X005629Y006408D01*
X005569Y006373D01*
X005507Y006341D01*
X005444Y006313D01*
X005379Y006289D01*
X005313Y006268D01*
X005245Y006251D01*
X005177Y006237D01*
X005108Y006228D01*
X005039Y006222D01*
X004970Y006220D01*
X004901Y006222D01*
X004832Y006228D01*
X004763Y006237D01*
X004695Y006251D01*
X004627Y006268D01*
X004561Y006289D01*
X004496Y006313D01*
X004433Y006341D01*
X004371Y006373D01*
X004311Y006408D01*
X004253Y006446D01*
X004198Y006487D01*
X004144Y006532D01*
X004093Y006579D01*
X004045Y006629D01*
X004000Y006681D01*
X003958Y006737D01*
X003919Y006794D01*
X003883Y006853D01*
X003850Y006914D01*
X003821Y006977D01*
X003796Y007042D01*
X003774Y007108D01*
X003755Y007175D01*
X003741Y007243D01*
X003730Y007311D01*
X003723Y007380D01*
X003720Y007449D01*
X003721Y007519D01*
X003726Y007588D01*
X003734Y007657D01*
X003746Y007725D01*
X003762Y007793D01*
X003782Y007859D01*
X003806Y007925D01*
X003833Y007988D01*
X003863Y008051D01*
X003897Y008111D01*
X003934Y008170D01*
X003975Y008226D01*
X004018Y008280D01*
X004065Y008332D01*
X004114Y008381D01*
X004166Y008427D01*
X004220Y008470D01*
D16*
X005389Y022839D03*
X016106Y024132D03*
D17*
X016995Y026592D02*
X017105Y026592D01*
X017142Y026628D01*
X017142Y026775D01*
X017105Y026812D01*
X016995Y026812D01*
X016995Y026592D01*
X017216Y026592D02*
X017363Y026738D01*
X017363Y026775D01*
X017326Y026812D01*
X017252Y026812D01*
X017216Y026775D01*
X017216Y026592D02*
X017363Y026592D01*
X008935Y029472D02*
X008789Y029472D01*
X008862Y029472D02*
X008862Y029692D01*
X008789Y029618D01*
X008714Y029655D02*
X008678Y029692D01*
X008568Y029692D01*
X008568Y029472D01*
X008678Y029472D01*
X008714Y029508D01*
X008714Y029655D01*
X008493Y029692D02*
X008347Y029692D01*
X008347Y029472D01*
X008493Y029472D01*
X008420Y029582D02*
X008347Y029582D01*
X008272Y029472D02*
X008126Y029472D01*
X008126Y029692D01*
X005477Y021737D02*
X005477Y021516D01*
X005550Y021516D02*
X005403Y021516D01*
X005329Y021553D02*
X005329Y021700D01*
X005293Y021737D01*
X005182Y021737D01*
X005182Y021516D01*
X005293Y021516D01*
X005329Y021553D01*
X005403Y021663D02*
X005477Y021737D01*
X009320Y011120D02*
X009320Y009820D01*
X010620Y009820D01*
X010620Y011120D01*
X009320Y011120D01*
X009670Y010470D02*
X009672Y010504D01*
X009678Y010538D01*
X009687Y010571D01*
X009701Y010602D01*
X009718Y010632D01*
X009738Y010660D01*
X009761Y010685D01*
X009787Y010708D01*
X009815Y010727D01*
X009845Y010743D01*
X009877Y010755D01*
X009910Y010764D01*
X009944Y010769D01*
X009979Y010770D01*
X010013Y010767D01*
X010046Y010760D01*
X010079Y010750D01*
X010110Y010735D01*
X010139Y010718D01*
X010166Y010697D01*
X010191Y010673D01*
X010213Y010646D01*
X010231Y010618D01*
X010246Y010587D01*
X010258Y010555D01*
X010266Y010521D01*
X010270Y010487D01*
X010270Y010453D01*
X010266Y010419D01*
X010258Y010385D01*
X010246Y010353D01*
X010231Y010322D01*
X010213Y010294D01*
X010191Y010267D01*
X010166Y010243D01*
X010139Y010222D01*
X010110Y010205D01*
X010079Y010190D01*
X010046Y010180D01*
X010013Y010173D01*
X009979Y010170D01*
X009944Y010171D01*
X009910Y010176D01*
X009877Y010185D01*
X009845Y010197D01*
X009815Y010213D01*
X009787Y010232D01*
X009761Y010255D01*
X009738Y010280D01*
X009718Y010308D01*
X009701Y010338D01*
X009687Y010369D01*
X009678Y010402D01*
X009672Y010436D01*
X009670Y010470D01*
X009570Y010470D02*
X009572Y010510D01*
X009578Y010549D01*
X009588Y010588D01*
X009601Y010625D01*
X009619Y010661D01*
X009640Y010695D01*
X009664Y010727D01*
X009691Y010756D01*
X009721Y010783D01*
X009753Y010806D01*
X009788Y010826D01*
X009824Y010842D01*
X009862Y010855D01*
X009901Y010864D01*
X009940Y010869D01*
X009980Y010870D01*
X010020Y010867D01*
X010059Y010860D01*
X010097Y010849D01*
X010135Y010835D01*
X010170Y010816D01*
X010203Y010795D01*
X010235Y010770D01*
X010263Y010742D01*
X010289Y010712D01*
X010311Y010679D01*
X010330Y010644D01*
X010346Y010607D01*
X010358Y010569D01*
X010366Y010530D01*
X010370Y010490D01*
X010370Y010450D01*
X010366Y010410D01*
X010358Y010371D01*
X010346Y010333D01*
X010330Y010296D01*
X010311Y010261D01*
X010289Y010228D01*
X010263Y010198D01*
X010235Y010170D01*
X010203Y010145D01*
X010170Y010124D01*
X010135Y010105D01*
X010097Y010091D01*
X010059Y010080D01*
X010020Y010073D01*
X009980Y010070D01*
X009940Y010071D01*
X009901Y010076D01*
X009862Y010085D01*
X009824Y010098D01*
X009788Y010114D01*
X009753Y010134D01*
X009721Y010157D01*
X009691Y010184D01*
X009664Y010213D01*
X009640Y010245D01*
X009619Y010279D01*
X009601Y010315D01*
X009588Y010352D01*
X009578Y010391D01*
X009572Y010430D01*
X009570Y010470D01*
X004520Y007936D02*
X004520Y007789D01*
X004373Y007936D01*
X004336Y007936D01*
X004300Y007899D01*
X004300Y007826D01*
X004336Y007789D01*
X004336Y007715D02*
X004300Y007678D01*
X004300Y007568D01*
X004520Y007568D01*
X004520Y007678D01*
X004483Y007715D01*
X004336Y007715D01*
X004300Y007494D02*
X004300Y007347D01*
X004520Y007347D01*
X004520Y007494D01*
X004410Y007421D02*
X004410Y007347D01*
X004520Y007273D02*
X004520Y007126D01*
X004300Y007126D01*
D18*
X008645Y008070D03*
X011295Y008070D03*
X011295Y012870D03*
X008645Y012870D03*
D19*
X013199Y013303D02*
X015599Y013303D01*
X015656Y013305D01*
X015712Y013311D01*
X015768Y013320D01*
X015824Y013333D01*
X015878Y013350D01*
X015931Y013370D01*
X015982Y013394D01*
X016032Y013422D01*
X016080Y013452D01*
X016126Y013486D01*
X016169Y013523D01*
X016210Y013562D01*
X016248Y013604D01*
X016283Y013649D01*
X016315Y013696D01*
X016344Y013745D01*
X016370Y013795D01*
X016392Y013848D01*
X016411Y013901D01*
X016426Y013956D01*
X016437Y014012D01*
X016445Y014068D01*
X016449Y014125D01*
X016449Y014181D01*
X016445Y014238D01*
X016437Y014294D01*
X016426Y014350D01*
X016411Y014405D01*
X016392Y014458D01*
X016370Y014511D01*
X016344Y014561D01*
X016315Y014610D01*
X016283Y014657D01*
X016248Y014702D01*
X016210Y014744D01*
X016169Y014783D01*
X016126Y014820D01*
X016080Y014854D01*
X016032Y014884D01*
X015982Y014912D01*
X015931Y014936D01*
X015878Y014956D01*
X015824Y014973D01*
X015768Y014986D01*
X015712Y014995D01*
X015656Y015001D01*
X015599Y015003D01*
X013199Y015003D01*
X013142Y015001D01*
X013086Y014995D01*
X013030Y014986D01*
X012974Y014973D01*
X012920Y014956D01*
X012867Y014936D01*
X012816Y014912D01*
X012766Y014884D01*
X012718Y014854D01*
X012672Y014820D01*
X012629Y014783D01*
X012588Y014744D01*
X012550Y014702D01*
X012515Y014657D01*
X012483Y014610D01*
X012454Y014561D01*
X012428Y014511D01*
X012406Y014458D01*
X012387Y014405D01*
X012372Y014350D01*
X012361Y014294D01*
X012353Y014238D01*
X012349Y014181D01*
X012349Y014125D01*
X012353Y014068D01*
X012361Y014012D01*
X012372Y013956D01*
X012387Y013901D01*
X012406Y013848D01*
X012428Y013795D01*
X012454Y013745D01*
X012483Y013696D01*
X012515Y013649D01*
X012550Y013604D01*
X012588Y013562D01*
X012629Y013523D01*
X012672Y013486D01*
X012718Y013452D01*
X012766Y013422D01*
X012816Y013394D01*
X012867Y013370D01*
X012920Y013350D01*
X012974Y013333D01*
X013030Y013320D01*
X013086Y013311D01*
X013142Y013305D01*
X013199Y013303D01*
D20*
X005720Y021820D03*
X016820Y026520D03*
D21*
X016445Y026520D03*
X018495Y026520D03*
X006095Y021820D03*
X004045Y021820D03*
M02*
