G75*
%MOIN*%
%OFA0B0*%
%FSLAX24Y24*%
%IPPOS*%
%LPD*%
%AMOC8*
5,1,8,0,0,1.08239X$1,22.5*
%
%ADD10C,0.0240*%
%ADD11OC8,0.0520*%
%ADD12C,0.0520*%
%ADD13OC8,0.0630*%
%ADD14C,0.0630*%
%ADD15C,0.0515*%
%ADD16C,0.0886*%
%ADD17C,0.0740*%
%ADD18OC8,0.0515*%
%ADD19C,0.0650*%
%ADD20C,0.0705*%
%ADD21C,0.0520*%
%ADD22OC8,0.0600*%
%ADD23C,0.0160*%
%ADD24C,0.2200*%
%ADD25C,0.0120*%
%ADD26C,0.0400*%
%ADD27C,0.0320*%
%ADD28OC8,0.1181*%
D10*
X000220Y002189D02*
X000220Y029748D01*
X000222Y029834D01*
X000227Y029920D01*
X000237Y030005D01*
X000250Y030090D01*
X000267Y030174D01*
X000287Y030258D01*
X000311Y030340D01*
X000339Y030421D01*
X000370Y030502D01*
X000404Y030580D01*
X000442Y030657D01*
X000484Y030733D01*
X000528Y030806D01*
X000576Y030877D01*
X000627Y030947D01*
X000681Y031014D01*
X000737Y031078D01*
X000797Y031140D01*
X000859Y031200D01*
X000923Y031256D01*
X000990Y031310D01*
X001060Y031361D01*
X001131Y031409D01*
X001205Y031453D01*
X001280Y031495D01*
X001357Y031533D01*
X001435Y031567D01*
X001516Y031598D01*
X001597Y031626D01*
X001679Y031650D01*
X001763Y031670D01*
X001847Y031687D01*
X001932Y031700D01*
X002017Y031710D01*
X002103Y031715D01*
X002189Y031717D01*
X002189Y031716D02*
X017937Y031716D01*
X017937Y031717D02*
X018023Y031715D01*
X018109Y031710D01*
X018194Y031700D01*
X018279Y031687D01*
X018363Y031670D01*
X018447Y031650D01*
X018529Y031626D01*
X018610Y031598D01*
X018691Y031567D01*
X018769Y031533D01*
X018846Y031495D01*
X018922Y031453D01*
X018995Y031409D01*
X019066Y031361D01*
X019136Y031310D01*
X019203Y031256D01*
X019267Y031200D01*
X019329Y031140D01*
X019389Y031078D01*
X019445Y031014D01*
X019499Y030947D01*
X019550Y030877D01*
X019598Y030806D01*
X019642Y030733D01*
X019684Y030657D01*
X019722Y030580D01*
X019756Y030502D01*
X019787Y030421D01*
X019815Y030340D01*
X019839Y030258D01*
X019859Y030174D01*
X019876Y030090D01*
X019889Y030005D01*
X019899Y029920D01*
X019904Y029834D01*
X019906Y029748D01*
X019905Y029748D02*
X019905Y002189D01*
X019906Y002189D02*
X019904Y002103D01*
X019899Y002017D01*
X019889Y001932D01*
X019876Y001847D01*
X019859Y001763D01*
X019839Y001679D01*
X019815Y001597D01*
X019787Y001516D01*
X019756Y001435D01*
X019722Y001357D01*
X019684Y001280D01*
X019642Y001204D01*
X019598Y001131D01*
X019550Y001060D01*
X019499Y000990D01*
X019445Y000923D01*
X019389Y000859D01*
X019329Y000797D01*
X019267Y000737D01*
X019203Y000681D01*
X019136Y000627D01*
X019066Y000576D01*
X018995Y000528D01*
X018922Y000484D01*
X018846Y000442D01*
X018769Y000404D01*
X018691Y000370D01*
X018610Y000339D01*
X018529Y000311D01*
X018447Y000287D01*
X018363Y000267D01*
X018279Y000250D01*
X018194Y000237D01*
X018109Y000227D01*
X018023Y000222D01*
X017937Y000220D01*
X002189Y000220D01*
X002103Y000222D01*
X002017Y000227D01*
X001932Y000237D01*
X001847Y000250D01*
X001763Y000267D01*
X001679Y000287D01*
X001597Y000311D01*
X001516Y000339D01*
X001435Y000370D01*
X001357Y000404D01*
X001280Y000442D01*
X001204Y000484D01*
X001131Y000528D01*
X001060Y000576D01*
X000990Y000627D01*
X000923Y000681D01*
X000859Y000737D01*
X000797Y000797D01*
X000737Y000859D01*
X000681Y000923D01*
X000627Y000990D01*
X000576Y001060D01*
X000528Y001131D01*
X000484Y001205D01*
X000442Y001280D01*
X000404Y001357D01*
X000370Y001435D01*
X000339Y001516D01*
X000311Y001597D01*
X000287Y001679D01*
X000267Y001763D01*
X000250Y001847D01*
X000237Y001932D01*
X000227Y002017D01*
X000222Y002103D01*
X000220Y002189D01*
X011470Y018970D02*
X009220Y021220D01*
X009236Y021236D01*
X009236Y023724D01*
X010220Y024708D01*
X010220Y024720D01*
X007970Y026970D01*
X007970Y029970D01*
D11*
X007970Y029970D03*
X008970Y029970D03*
X009313Y027734D03*
X010220Y024720D03*
X010220Y023470D03*
X009220Y021220D03*
X008720Y021970D03*
X008220Y021220D03*
X007220Y023470D03*
X007220Y024720D03*
X006313Y027734D03*
X005288Y027422D03*
X004788Y028172D03*
X004288Y027422D03*
X001470Y022220D03*
X001470Y021220D03*
X002220Y021720D03*
X000970Y014720D03*
X000970Y013470D03*
X000970Y012220D03*
X000970Y010970D03*
X000970Y009720D03*
X003970Y009720D03*
X003970Y010970D03*
X003970Y012220D03*
X003970Y013470D03*
X003970Y014720D03*
X004970Y007970D03*
X004970Y006970D03*
X016220Y010970D03*
X016220Y012220D03*
X019220Y012220D03*
X019220Y010970D03*
D12*
X018470Y015970D03*
X017470Y015970D03*
X016470Y015970D03*
X015470Y015970D03*
X014470Y015970D03*
X013470Y015970D03*
X012470Y015970D03*
X011470Y015970D03*
X010470Y015970D03*
X009470Y015970D03*
X008470Y015970D03*
X007470Y015970D03*
X006470Y015970D03*
X005470Y015970D03*
X005470Y018970D03*
X006470Y018970D03*
X007470Y018970D03*
X008470Y018970D03*
X009470Y018970D03*
X010470Y018970D03*
X011470Y018970D03*
X012470Y018970D03*
X013470Y018970D03*
X014470Y018970D03*
X015470Y018970D03*
X016470Y018970D03*
X017470Y018970D03*
X018470Y018970D03*
X015349Y014153D03*
X013449Y014153D03*
D13*
X017470Y014720D03*
X017470Y013470D03*
X018470Y013470D03*
X018470Y014720D03*
X001320Y027370D03*
X001262Y024313D03*
D14*
X002262Y024313D03*
X002320Y027370D03*
D15*
X004469Y030514D03*
X005259Y030514D03*
X006049Y030514D03*
D16*
X006874Y030514D03*
X003644Y030514D03*
D17*
X016440Y009360D03*
X016440Y007580D03*
X016440Y005360D03*
X016440Y003580D03*
X019000Y003580D03*
X019000Y005360D03*
X019000Y007580D03*
X019000Y009360D03*
X006250Y005360D03*
X006250Y003580D03*
X003690Y003580D03*
X003690Y005360D03*
D18*
X003931Y022851D03*
X003931Y023851D03*
X003931Y024851D03*
X003931Y025851D03*
X005931Y025851D03*
X005931Y024851D03*
X005931Y023851D03*
X005931Y022851D03*
X016118Y023591D03*
X017118Y023591D03*
X018118Y023591D03*
X019118Y023591D03*
X019118Y025591D03*
X018118Y025591D03*
X017118Y025591D03*
X016118Y025591D03*
D19*
X015862Y027976D02*
X015212Y027976D01*
X014789Y028832D02*
X014789Y029482D01*
X016285Y029482D02*
X016285Y028832D01*
X014220Y024795D02*
X014220Y024145D01*
X013220Y024145D02*
X013220Y024795D01*
X012220Y024795D02*
X012220Y024145D01*
X011281Y027976D02*
X010631Y027976D01*
X010208Y028832D02*
X010208Y029482D01*
X011704Y029482D02*
X011704Y028832D01*
X016283Y021171D02*
X016283Y020521D01*
X017139Y020098D02*
X017789Y020098D01*
X017789Y021594D02*
X017139Y021594D01*
D20*
X012783Y011450D02*
X012078Y011450D01*
X012078Y009490D02*
X012783Y009490D01*
X007863Y009490D02*
X007158Y009490D01*
X007158Y011450D02*
X007863Y011450D01*
D21*
X006830Y021820D02*
X006310Y021820D01*
X003830Y021820D02*
X003310Y021820D01*
X015710Y026520D02*
X016230Y026520D01*
X018710Y026520D02*
X019230Y026520D01*
D22*
X003122Y019397D03*
X003122Y018397D03*
X003122Y017397D03*
X003122Y016397D03*
X002122Y016397D03*
X002122Y017397D03*
X002122Y018397D03*
X002122Y019397D03*
D23*
X000929Y019905D02*
X000929Y014761D01*
X000970Y014720D01*
X000970Y013470D01*
X000970Y010970D02*
X001795Y010145D01*
X001795Y008881D01*
X002706Y007970D01*
X004970Y007970D01*
X004970Y006970D02*
X002470Y006970D01*
X000970Y008470D01*
X000970Y009720D01*
X003173Y010850D02*
X003173Y016346D01*
X003122Y016397D01*
X003137Y016397D01*
X004354Y015181D01*
X010681Y015181D01*
X011470Y015970D01*
X011970Y015417D02*
X018629Y015417D01*
X019076Y015864D01*
X019076Y016561D01*
X019061Y018545D01*
X018470Y018970D01*
X017470Y018970D02*
X016970Y019431D01*
X014141Y019431D01*
X013852Y019720D01*
X011470Y019720D01*
X010220Y020970D01*
X010220Y023470D01*
X011244Y024433D02*
X012183Y024433D01*
X012220Y024470D01*
X011244Y024433D02*
X010063Y025614D01*
X010063Y028173D01*
X010208Y028515D01*
X010208Y029157D01*
X007220Y024720D02*
X007220Y023470D01*
X003122Y017397D02*
X003122Y017200D01*
X004748Y015574D01*
X006074Y015574D01*
X006470Y015970D01*
X007086Y012538D02*
X004347Y012538D01*
X003970Y012220D01*
X003173Y010850D02*
X003763Y010259D01*
X004551Y010259D01*
X005320Y009490D01*
X007510Y009490D01*
X007510Y011450D02*
X007510Y012096D01*
X007086Y012538D01*
X003970Y014720D02*
X011470Y014720D01*
X011970Y015417D01*
X013449Y014153D02*
X014132Y013470D01*
X017470Y013470D01*
X017470Y014720D02*
X015916Y014720D01*
X015349Y014153D01*
X016220Y012220D02*
X017149Y011291D01*
X017149Y007110D01*
X016440Y006007D01*
X016440Y005360D01*
X016118Y023591D02*
X015420Y024289D01*
X015420Y026020D01*
X015920Y026520D01*
X015970Y026520D01*
X016118Y025591D02*
X017047Y026520D01*
X018970Y026520D01*
X014789Y028568D02*
X014590Y028173D01*
X014590Y025614D01*
X014196Y025220D01*
X014196Y024494D01*
X014220Y024470D01*
X014789Y028568D02*
X014789Y029157D01*
X002220Y021720D02*
X002220Y021196D01*
X000929Y019905D01*
D24*
X001845Y029783D03*
X018095Y029783D03*
X018095Y001783D03*
X001783Y001845D03*
D25*
X011470Y015970D02*
X013420Y017920D01*
X013420Y018920D01*
X013470Y018970D01*
D26*
X007464Y026288D02*
X007464Y027582D01*
X005259Y029787D01*
X005259Y030514D01*
X004469Y030514D02*
X004469Y029553D01*
X005338Y028685D01*
X005338Y027471D01*
X005288Y027422D01*
D27*
X004494Y026627D01*
X004423Y026598D02*
X003370Y026598D01*
X002627Y027340D01*
X002557Y027370D02*
X002320Y027370D01*
X002557Y027370D02*
X002577Y027368D01*
X002595Y027362D01*
X002613Y027353D01*
X002628Y027341D01*
X004423Y026598D02*
X004443Y026600D01*
X004461Y026606D01*
X004479Y026615D01*
X004494Y026627D01*
D28*
X007471Y026294D03*
X012470Y026294D03*
M02*
